<?xml version="1.0" encoding="UTF-8" standalone="no"?>
<!-- Created with Inkscape (http://www.inkscape.org/) -->

<svg
   width="26.996136mm"
   height="18.520834mm"
   viewBox="0 0 26.996135 18.520834"
   version="1.1"
   id="svg5085"
   xml:space="preserve"
   inkscape:version="1.2.1 (0f2f062aeb, 2022-09-21, custom)"
   sodipodi:docname="logoCCHS.svg"
   xmlns:inkscape="http://www.inkscape.org/namespaces/inkscape"
   xmlns:sodipodi="http://sodipodi.sourceforge.net/DTD/sodipodi-0.dtd"
   xmlns:xlink="http://www.w3.org/1999/xlink"
   xmlns="http://www.w3.org/2000/svg"
   xmlns:svg="http://www.w3.org/2000/svg"><sodipodi:namedview
     id="namedview5087"
     pagecolor="#ffffff"
     bordercolor="#666666"
     borderopacity="1.0"
     inkscape:showpageshadow="2"
     inkscape:pageopacity="0.0"
     inkscape:pagecheckerboard="0"
     inkscape:deskcolor="#d1d1d1"
     inkscape:document-units="mm"
     showgrid="false"
     inkscape:zoom="1.6819304"
     inkscape:cx="31.214133"
     inkscape:cy="36.565128"
     inkscape:window-width="1920"
     inkscape:window-height="1016"
     inkscape:window-x="0"
     inkscape:window-y="0"
     inkscape:window-maximized="1"
     inkscape:current-layer="layer1" /><defs
     id="defs5082"><pattern
       inkscape:collect="always"
       xlink:href="#Strips1_1"
       id="pattern9136"
       patternTransform="matrix(10,0,0,10,-28.680225,-21.481172)" /><pattern
       inkscape:collect="always"
       patternUnits="userSpaceOnUse"
       width="2"
       height="1"
       patternTransform="translate(0,0) scale(10,10)"
       id="Strips1_1"
       inkscape:stockid="Stripes 1:1"><rect
         style="fill:black;stroke:none"
         x="0"
         y="-0.5"
         width="1"
         height="2"
         id="rect8018" /></pattern></defs><g
     inkscape:label="Capa 1"
     inkscape:groupmode="layer"
     id="layer1"
     transform="translate(-103.62209,-166.65857)"><path
       style="fill:#000000;fill-opacity:1;stroke-width:0.297277"
       d=""
       id="path6357"
       transform="scale(0.26458333)" /><path
       style="fill:#000000;fill-opacity:1;stroke-width:0.297277"
       d=""
       id="path6359"
       transform="scale(0.26458333)" /><g
       id="g280"
       transform="matrix(1.7717045,0,0,1.7717045,-79.965619,-128.61117)"><text
         xml:space="preserve"
         style="font-style:normal;font-variant:normal;font-weight:bold;font-stretch:normal;font-size:1.63835px;line-height:6.19221px;font-family:'Gill Sans MT';-inkscape-font-specification:'Gill Sans MT, Bold';font-variant-ligatures:normal;font-variant-caps:normal;font-variant-numeric:normal;font-variant-east-asian:normal;stroke-width:0.0409587;image-rendering:auto"
         x="107.36546"
         y="185.78513"
         id="text4441"
         transform="scale(1.0527932,0.94985415)"><tspan
           sodipodi:role="line"
           id="tspan4439"
           style="font-style:normal;font-variant:normal;font-weight:bold;font-stretch:normal;font-size:1.63835px;font-family:'Gill Sans MT';-inkscape-font-specification:'Gill Sans MT, Bold';font-variant-ligatures:normal;font-variant-caps:normal;font-variant-numeric:normal;font-variant-east-asian:normal;stroke-width:0.0409587"
           x="107.36546"
           y="185.78513">CCHS</tspan></text><path
         style="fill:#60c658;fill-opacity:1;stroke:none;stroke-width:0.264583px;stroke-linecap:butt;stroke-linejoin:miter;stroke-opacity:1"
         d="m 114.81007,167.32946 -0.0325,0.41007 0.88227,1.5663 0.002,0.27309 0.48709,0.70543 0.0585,1.59193 0.64231,0.0335 0.84665,-0.0688 0.31111,-0.0937 0.85196,0.21041 -0.18325,-0.70597 -0.0644,-0.97156 -0.12395,-0.32827 -0.0698,-0.30058 0.0741,-0.25375 -0.0552,-0.29416 -0.0556,-0.23562 0.10993,-0.27243 -0.24126,-0.33316 -0.0246,-0.5578 -1.54392,-0.0851 -0.65329,-0.0803 z"
         id="path12191" /><path
         style="fill:#0073c6;fill-opacity:1;stroke:none;stroke-width:0.264583px;stroke-linecap:butt;stroke-linejoin:miter;stroke-opacity:1"
         d="m 110.54191,167.62277 0.0797,0.29405 0.13351,0.22866 -0.19901,2.13746 5.71435,0.0381 -0.51392,-0.73769 -0.0273,-0.33957 -0.91584,-1.45517 -0.94027,-0.0163 -0.007,-0.12308 z"
         id="path10394" /><path
         style="fill:#60c658;fill-opacity:1;stroke:none;stroke-width:0.0393274"
         d="m 109.81222,176.67266 -0.97041,-0.43562 -0.11915,-0.31749 c -0.0887,-0.23636 -0.14554,-0.51203 -0.22239,-1.07878 -0.0988,-0.72827 -0.11391,-0.7889 -0.3492,-1.39751 -0.13528,-0.34993 -0.25641,-0.70061 -0.26918,-0.7793 -0.0226,-0.13909 -0.0173,-0.1467 0.19127,-0.27307 0.1857,-0.11255 0.21188,-0.1433 0.19508,-0.22914 -0.0604,-0.30875 -0.34081,-2.29094 -0.32612,-2.30564 0.01,-0.01 0.24766,-0.0285 0.52892,-0.042 l 0.51138,-0.0245 0.28768,0.30285 c 0.15822,0.16657 0.44589,0.42903 0.63928,0.58324 l 0.3516,0.28039 -0.022,0.18544 -0.022,0.18544 0.20414,0.13583 c 0.1975,0.13142 0.20912,0.14962 0.357,0.55913 0.12341,0.34177 0.16408,0.52858 0.21116,0.97001 0.0561,0.52565 0.0552,0.55909 -0.0222,0.86731 l -0.0805,0.32058 0.13101,0.26017 0.13102,0.26017 -0.0772,0.60824 c -0.0825,0.65002 -0.074,0.99628 0.0306,1.25789 0.0515,0.12883 0.0529,0.16447 0.008,0.22682 -0.11261,0.1581 -0.2654,0.32282 -0.29595,0.31907 -0.0176,-0.002 -0.46872,-0.19998 -1.00244,-0.43957 z"
         id="path10314" /><path
         style="fill:#0073c6;fill-opacity:1;stroke:url(#pattern9136);stroke-width:0.264583px;stroke-linecap:butt;stroke-linejoin:miter;stroke-opacity:1"
         d="m 108.1586,172.21731 -0.83371,-5.13637 -2.61496,0.46763 0.024,0.35087 -0.28804,0.373 -0.22813,0.97904 -5.3e-4,0.70435 -0.45687,0.75552 0.24595,1.53945 0.81389,-0.26377 0.7655,-0.047 1.12728,0.4048 z"
         id="path6415" /><path
         style="fill:#000000;fill-opacity:0.709048;stroke-width:0.0849498"
         d="m 106.8988,176.63367 c -0.80384,-0.24995 -2.28466,-2.38074 -2.42346,-3.48714 -0.0239,-0.19081 -0.13617,-0.62734 -0.2494,-0.97007 -0.47203,-1.42858 -0.31098,-2.40184 0.5625,-3.39934 1.25156,-1.42927 3.69683,-1.54479 5.16003,-0.24376 l 0.18525,0.16471 0.55459,-0.17917 c 0.30503,-0.0985 0.60394,-0.17943 0.66426,-0.17975 0.0603,-3.2e-4 0.20291,-0.13748 0.31688,-0.30481 0.32831,-0.48202 1.50068,-1.3139 1.64636,-1.16822 0.0242,0.0242 0.17916,-0.0202 0.34436,-0.0985 1.05221,-0.49931 3.36126,0.80424 3.75134,2.11777 0.13692,0.46105 0.17047,1.79463 0.0471,1.87089 -0.0427,0.0264 -0.10332,0.20045 -0.13481,0.38685 -0.0315,0.1864 -0.0912,0.3599 -0.13276,0.38557 -0.16594,0.10255 -0.66015,0.95846 -0.80745,1.39837 -0.19239,0.57461 -0.34268,0.76455 -0.60492,0.76455 -0.1409,0 -0.25519,0.09 -0.3775,0.29733 -0.0965,0.16352 -0.20762,0.29732 -0.24697,0.29732 -0.11637,0 -0.19544,-0.18428 -0.10431,-0.24311 0.0462,-0.0298 0.14764,-0.17845 0.22544,-0.3303 0.11122,-0.21708 0.19499,-0.27609 0.39194,-0.27609 0.26975,0 0.4003,-0.17745 0.64774,-0.88039 0.068,-0.19326 0.27741,-0.60606 0.46529,-0.91734 0.18788,-0.31128 0.35759,-0.69355 0.37713,-0.8495 0.0195,-0.15594 0.0583,-0.38798 0.0861,-0.51564 0.43448,-1.9928 -2.6375,-4.10162 -4.30328,-2.95408 -0.68455,0.47158 -1.29062,1.17569 -0.93106,1.08166 0.76719,-0.20062 2.72014,1.87388 2.34124,2.48696 -0.0881,0.14252 -0.18917,0.0222 -0.24892,-0.29627 -0.0308,-0.16389 -0.15361,-0.40323 -0.27303,-0.53187 -0.11942,-0.12865 -0.27171,-0.33923 -0.33842,-0.46797 -0.14157,-0.27319 -0.64097,-0.61034 -1.03094,-0.69599 -0.15008,-0.033 -0.29467,-0.0952 -0.32133,-0.13835 -0.14431,-0.23349 -0.46506,-0.0691 -0.67556,0.34634 -0.11838,0.23361 -0.27193,0.42475 -0.34123,0.42475 -0.15691,0 -0.15641,-0.14864 0.001,-0.42475 0.2452,-0.42893 0.13096,-0.50735 -0.48846,-0.33533 -0.36677,0.10186 -0.3752,0.13495 -0.15677,0.61608 0.2385,0.52535 0.25219,0.69617 0.0558,0.69617 -0.11901,0 -0.21382,-0.12229 -0.34197,-0.44107 -0.24455,-0.60835 -0.23544,-0.6069 -0.75058,-0.1197 -0.84092,0.79531 -1.20844,2.69455 -0.63282,3.27017 0.0649,0.0649 0.24915,0.50631 0.40939,0.98085 0.23803,0.70491 0.31836,0.85578 0.439,0.82443 0.15247,-0.0396 0.57442,0.23664 0.57442,0.3761 0,0.12253 0.32397,0.41677 0.55602,0.505 0.11519,0.0438 0.27347,0.2139 0.35173,0.37802 0.16469,0.34536 0.33684,0.42443 0.65813,0.30228 0.28287,-0.10755 0.47291,-0.11176 0.47291,-0.0105 0,0.10603 -0.47996,0.26343 -0.79846,0.26186 -0.34332,-0.002 -0.47909,-0.0945 -0.64106,-0.43845 -0.0855,-0.18145 -0.20461,-0.29248 -0.33348,-0.31076 -0.11028,-0.0156 -0.21955,-0.10122 -0.24281,-0.19018 -0.0233,-0.089 -0.072,-0.14339 -0.1083,-0.12096 -0.0363,0.0224 -0.12522,-0.0496 -0.1976,-0.16005 -0.0936,-0.1429 -0.18893,-0.18988 -0.33034,-0.16285 -0.22083,0.0422 -0.32783,-0.13162 -0.71624,-1.16365 -0.11437,-0.30386 -0.29128,-0.68627 -0.39314,-0.84979 -0.60898,-0.97765 -0.0693,-3.24729 0.92098,-3.87324 0.87503,-0.5531 -1.03289,-1.38317 -2.5759,-1.12067 -1.03794,0.17657 -2.31409,1.10164 -2.31409,1.67746 0,0.0519 -0.0598,0.18558 -0.13287,0.29711 -0.20678,0.3156 -0.18449,1.33314 0.0429,1.95746 0.1021,0.28034 0.18661,0.56704 0.1878,0.63713 0.004,0.24285 0.35187,1.23453 0.63686,1.81614 1.02554,2.09295 2.34442,2.67467 3.3127,1.46113 0.21638,-0.27118 0.53991,-0.41345 0.53991,-0.23741 0,0.11826 -0.8844,0.91864 -1.12958,1.02226 -0.28785,0.12165 -0.67393,0.11615 -1.09772,-0.0156 z m 6.51727,-1.67415 c -0.57834,-0.43644 -0.52263,-0.5576 0.0805,-0.17509 0.47808,0.30318 0.7429,0.26917 0.97563,-0.12529 0.14322,-0.24274 0.43049,-0.40193 0.43049,-0.23855 0,0.59571 -0.95338,0.94133 -1.48662,0.53893 z m -8.11754,-2.29033 c -0.0876,-0.0541 -0.0251,-0.11489 0.24019,-0.23368 0.1972,-0.0883 0.33322,-0.18584 0.30228,-0.21678 -0.10719,-0.10719 -0.4112,-0.0517 -0.62259,0.11365 -0.24782,0.19384 -0.3402,0.21122 -0.33874,0.0637 5.8e-4,-0.0584 0.13602,-0.19364 0.30099,-0.30051 l 0.29994,-0.19433 0.46356,0.14613 c 0.365,0.11506 0.62239,0.28499 0.43165,0.28499 -0.0175,0 -0.24048,0.0922 -0.49541,0.20499 -0.29593,0.13087 -0.50629,0.17853 -0.58186,0.13183 z m 5.32215,-0.0691 c -0.0275,-0.0446 0.0449,-0.24729 0.16109,-0.45047 0.28477,-0.49813 0.28934,-0.92159 0.01,-0.92159 -0.23279,0 -0.2703,-0.0728 -0.29528,-0.57341 -0.0258,-0.51651 0.21202,-0.50298 0.28992,0.0165 0.0449,0.29937 0.0943,0.38291 0.23882,0.40351 0.1647,0.0235 0.1798,0.0709 0.15721,0.4932 -0.0346,0.64675 -0.39295,1.30531 -0.56171,1.03226 z"
         id="path143"
         sodipodi:nodetypes="ccssscccsscscscsssssssssscssccssscsscssssssssscssscssccsccsssscscssssccsssssscsscsscsscccccsccsccc" /></g></g></svg>
