<?xml version="1.0" encoding="UTF-8" standalone="no"?>
<!-- Created with Inkscape (http://www.inkscape.org/) -->

<svg
   version="1.1"
   id="svg18"
   width="74.329895"
   height="70"
   viewBox="0 0 74.329895 70"
   sodipodi:docname="logoRed.svg"
   inkscape:version="1.2.1 (0f2f062aeb, 2022-09-21, custom)"
   xmlns:inkscape="http://www.inkscape.org/namespaces/inkscape"
   xmlns:sodipodi="http://sodipodi.sourceforge.net/DTD/sodipodi-0.dtd"
   xmlns="http://www.w3.org/2000/svg"
   xmlns:svg="http://www.w3.org/2000/svg">
  <defs
     id="defs22" />
  <sodipodi:namedview
     id="namedview20"
     pagecolor="#ffffff"
     bordercolor="#666666"
     borderopacity="1.0"
     inkscape:showpageshadow="2"
     inkscape:pageopacity="0.0"
     inkscape:pagecheckerboard="0"
     inkscape:deskcolor="#d1d1d1"
     showgrid="false"
     inkscape:zoom="2.4329897"
     inkscape:cx="170.36652"
     inkscape:cy="92.684322"
     inkscape:window-width="1920"
     inkscape:window-height="1016"
     inkscape:window-x="0"
     inkscape:window-y="0"
     inkscape:window-maximized="1"
     inkscape:current-layer="g24" />
  <g
     inkscape:groupmode="layer"
     inkscape:label="Image"
     id="g24"
     transform="translate(1238.5483,3.0954737)">
    <g
       id="g1226"
       transform="matrix(0.0899268,0,0,0.09020619,-1238.4894,-3.1510879)"
       style="fill:#af071f;fill-opacity:1">
      <path
         style="fill:#af071f;fill-opacity:1;stroke-width:0.32"
         d="m 766.30495,747.89668 c 5.676,-0.049 14.964,-0.049 20.64,0 5.676,0.049 1.032,0.089 -10.32,0.089 -11.352,0 -15.996,-0.0401 -10.32,-0.089 z m -177.57654,-0.32006 c 6.2169,-0.0486 16.2969,-0.0486 22.4,6e-5 6.1031,0.0486 1.01654,0.0884 -11.30346,0.0883 -12.32,-3e-5 -17.31344,-0.0398 -11.09654,-0.0884 z m -178.56,-0.32 c 6.2169,-0.0486 16.2969,-0.0485 22.4,6e-5 6.1031,0.0486 1.01654,0.0884 -11.30346,0.0883 -12.32,-3e-5 -17.31344,-0.0398 -11.09654,-0.0884 z m -178.42346,-0.31997 c 6.116,-0.0486 16.124,-0.0486 22.24,0 6.116,0.0486 1.112,0.0884 -11.12,0.0884 -12.232,0 -17.236,-0.0398 -11.12,-0.0884 z M 53.368413,746.61662 c 6.216902,-0.0486 16.296902,-0.0485 22.4,6e-5 6.103097,0.0486 1.016541,0.0884 -11.303459,0.0883 -12.32,-3e-5 -17.313444,-0.0398 -11.096541,-0.0884 z m 456.524607,-2.0801 c -0.0835,-0.22 -0.11479,-52.888 -0.0695,-117.04 l 0.0823,-116.64 0.0796,116.87703 0.0795,116.87699 15.92,0.0861 15.92,0.086 -15.93004,0.0769 c -12.50676,0.0604 -15.96266,-0.009 -16.08189,-0.32304 z M 129.50495,722.00459 c 0.22,-0.0888 0.58,-0.0888 0.8,0 0.22,0.0888 0.04,0.1614 -0.4,0.1614 -0.44,0 -0.62,-0.0726 -0.4,-0.1614 z m 10.24,0 c 0.22,-0.0888 0.58,-0.0888 0.8,0 0.22,0.0888 0.04,0.1614 -0.4,0.1614 -0.44,0 -0.62,-0.0726 -0.4,-0.1614 z m 557.12,0 c 0.22,-0.0888 0.58,-0.0888 0.8,0 0.22,0.0888 0.04,0.1614 -0.4,0.1614 -0.44,0 -0.62,-0.0726 -0.4,-0.1614 z m 9.92,0 c 0.22,-0.0888 0.58,-0.0888 0.8,0 0.22,0.0888 0.04,0.1614 -0.4,0.1614 -0.44,0 -0.62,-0.0726 -0.4,-0.1614 z m -344,-1.28 c 0.22,-0.0888 0.58,-0.0888 0.8,0 0.22,0.0888 0.04,0.1614 -0.4,0.1614 -0.44,0 -0.62,-0.0726 -0.4,-0.1614 z m 11.84,0 c 0.22,-0.0888 0.58,-0.0888 0.8,0 0.22,0.0888 0.04,0.1614 -0.4,0.1614 -0.44,0 -0.62,-0.0726 -0.4,-0.1614 z m 4.82,-0.32666 c 0.23101,-0.0924 0.50701,-0.0811 0.61335,0.0253 0.10633,0.10634 -0.0827,0.18198 -0.42,0.1681 -0.3728,-0.0154 -0.44861,-0.0912 -0.19335,-0.19335 z m 80.40525,-37.08806 c 0.0154,-0.3728 0.0912,-0.44861 0.19335,-0.19335 0.0924,0.23101 0.0811,0.50701 -0.0253,0.61335 -0.10634,0.10633 -0.18199,-0.0827 -0.1681,-0.42 z m 0,-9.28 c 0.0154,-0.3728 0.0912,-0.44861 0.19335,-0.19335 0.0924,0.23101 0.0811,0.50701 -0.0253,0.61335 -0.10634,0.10633 -0.18199,-0.0827 -0.1681,-0.42 z m -188.56525,-4.83194 c 0.231,-0.0925 0.50701,-0.0811 0.61334,0.0253 0.10633,0.10634 -0.0827,0.18198 -0.42,0.1681 -0.37279,-0.0154 -0.44861,-0.0912 -0.19334,-0.19335 z m 3.84,-0.32 c 0.231,-0.0924 0.50701,-0.0811 0.61334,0.0253 0.10633,0.10634 -0.0827,0.18198 -0.42,0.1681 -0.37279,-0.0154 -0.44861,-0.0912 -0.19334,-0.19335 z m 3.84,-0.32 c 0.231,-0.0925 0.50701,-0.0811 0.61334,0.0253 0.10633,0.10634 -0.0827,0.18198 -0.42,0.1681 -0.37279,-0.0154 -0.44861,-0.0912 -0.19334,-0.19335 z M 57.290218,640.42987 c 0.01536,-0.3728 0.09118,-0.44861 0.193331,-0.19335 0.09244,0.23101 0.08107,0.50701 -0.02525,0.61335 -0.106336,0.10633 -0.181965,-0.0827 -0.168071,-0.42 z m 534.079982,-1.92 c 0.0154,-0.3728 0.0912,-0.44861 0.19335,-0.19335 0.0924,0.23101 0.0811,0.50701 -0.0253,0.61335 -0.10634,0.10633 -0.18199,-0.0827 -0.1681,-0.42 z m 32.98528,-1.73335 c 0,-0.44 0.0726,-0.62 0.16141,-0.4 0.0888,0.22 0.0888,0.58 0,0.8 -0.0888,0.22 -0.16141,0.04 -0.16141,-0.4 z m -567.360002,-0.96 c 0,-0.44 0.07263,-0.62 0.161405,-0.4 0.08877,0.22 0.08877,0.58 0,0.8 -0.08877,0.22 -0.161405,0.04 -0.161405,-0.4 z m 534.103712,-2.88 c 0,-0.616 0.0659,-0.868 0.14634,-0.56 0.0805,0.308 0.0805,0.812 0,1.12 -0.0805,0.308 -0.14634,0.056 -0.14634,-0.56 z m 33.00548,-6.56 c 0,-1.936 0.0534,-2.68675 0.11712,-1.66832 0.0637,1.01843 0.0631,2.60243 0,3.52 -0.0644,0.91757 -0.11655,0.0843 -0.11581,-1.85168 z m -33.00548,-7.2 c 0,-0.616 0.0659,-0.868 0.14634,-0.56 0.0805,0.308 0.0805,0.812 0,1.12 -0.0805,0.308 -0.14634,0.056 -0.14634,-0.56 z m -534.103712,-1.6 c 0,-0.44 0.07263,-0.62 0.161405,-0.4 0.08877,0.22 0.08877,0.58 0,0.8 -0.08877,0.22 -0.161405,0.04 -0.161405,-0.4 z M 624.3302,616.74987 c 0.0154,-0.3728 0.0912,-0.44861 0.19335,-0.19335 0.0924,0.23101 0.0811,0.50701 -0.0253,0.61335 -0.10634,0.10633 -0.18199,-0.0827 -0.1681,-0.42 z M 423.92495,578.95793 c 0.23101,-0.0924 0.50701,-0.0811 0.61335,0.0253 0.10633,0.10634 -0.0827,0.18198 -0.42,0.1681 -0.3728,-0.0154 -0.44861,-0.0912 -0.19335,-0.19335 z m 4.48,-0.32 c 0.23101,-0.0924 0.50701,-0.0811 0.61335,0.0253 0.10633,0.10634 -0.0827,0.18198 -0.42,0.1681 -0.3728,-0.0154 -0.44861,-0.0912 -0.19335,-0.19335 z m 4.48,-0.32 c 0.23101,-0.0925 0.50701,-0.0811 0.61335,0.0253 0.10633,0.10634 -0.0827,0.18198 -0.42,0.1681 -0.3728,-0.0154 -0.44861,-0.0912 -0.19335,-0.19335 z m 4.48,-0.32 c 0.23101,-0.0924 0.50701,-0.0811 0.61335,0.0253 0.10633,0.10634 -0.0827,0.18198 -0.42,0.1681 -0.3728,-0.0154 -0.44861,-0.0912 -0.19335,-0.19335 z m 4.16,-0.32 c 0.23101,-0.0924 0.50701,-0.0811 0.61335,0.0253 0.10633,0.10634 -0.0827,0.18198 -0.42,0.1681 -0.3728,-0.0154 -0.44861,-0.0912 -0.19335,-0.19335 z m 4.48,-0.32 c 0.23101,-0.0924 0.50701,-0.0811 0.61335,0.0253 0.10633,0.10634 -0.0827,0.18198 -0.42,0.1681 -0.3728,-0.0154 -0.44861,-0.0912 -0.19335,-0.19335 z m 4.48,-0.32 c 0.23101,-0.0924 0.50701,-0.0811 0.61335,0.0253 0.10633,0.10634 -0.0827,0.18198 -0.42,0.1681 -0.3728,-0.0154 -0.44861,-0.0912 -0.19335,-0.19335 z m -142.91761,-6.02141 c 0.007,-0.528 0.0782,-0.70525 0.15937,-0.39392 0.0811,0.31136 0.0758,0.74336 -0.0119,0.96 -0.0877,0.21667 -0.15404,-0.0381 -0.14752,-0.56608 z m -0.0119,-3.04 c 0,-0.44 0.0726,-0.62 0.1614,-0.4 0.0888,0.22 0.0888,0.58 0,0.8 -0.0888,0.22 -0.1614,0.04 -0.1614,-0.4 z m 43.72947,-33.17859 c 0.23101,-0.0924 0.50701,-0.0811 0.61334,0.0253 0.10634,0.10634 -0.0827,0.18198 -0.42,0.1681 -0.3728,-0.0154 -0.4486,-0.0912 -0.19334,-0.19335 z m 4.62608,-0.32317 c 0.31136,-0.0811 0.74336,-0.0758 0.96,0.0118 0.21667,0.0877 -0.0381,0.15402 -0.56608,0.14752 -0.528,-0.006 -0.70525,-0.0782 -0.39392,-0.15939 z m 13.12,0 c 0.31136,-0.0811 0.74336,-0.0758 0.96,0.0118 0.21667,0.0877 -0.0381,0.15402 -0.56608,0.14752 -0.528,-0.006 -0.70525,-0.0782 -0.39392,-0.15939 z m -240.14608,-0.63683 c 0.231,-0.0924 0.507,-0.0811 0.61334,0.0253 0.10633,0.10634 -0.0827,0.18198 -0.42,0.1681 -0.37279,-0.0154 -0.44861,-0.0912 -0.19334,-0.19335 z m 7.02,-0.33571 c 0.748,-0.0674 1.972,-0.0674 2.72,0 0.748,0.0674 0.136,0.12249 -1.36,0.12249 -1.496,0 -2.108,-0.0551 -1.36,-0.12249 z m 567.36,0 c 0.748,-0.0674 1.972,-0.0674 2.72,0 0.748,0.0674 0.136,0.12249 -1.36,0.12249 -1.496,0 -2.108,-0.0551 -1.36,-0.12249 z m -354.86,-25.90429 c 0.23101,-0.0925 0.50701,-0.0811 0.61334,0.0253 0.10634,0.10634 -0.0827,0.18198 -0.42,0.1681 -0.3728,-0.0154 -0.4486,-0.0912 -0.19334,-0.19335 z m -219.85999,-0.31334 c 0.22,-0.0888 0.58,-0.0888 0.8,0 0.22,0.0888 0.04,0.1614 -0.4,0.1614 -0.44,0 -0.62,-0.0726 -0.4,-0.1614 z m 18.24,0 c 0.22,-0.0888 0.58,-0.0888 0.8,0 0.22,0.0888 0.04,0.1614 -0.4,0.1614 -0.44,0 -0.62,-0.0726 -0.4,-0.1614 z m 205.44,0 c 0.22,-0.0888 0.58,-0.0888 0.8,0 0.22,0.0888 0.04,0.1614 -0.4,0.1614 -0.44,0 -0.62,-0.0726 -0.4,-0.1614 z m 19.2,0 c 0.22,-0.0888 0.58,-0.0888 0.8,0 0.22,0.0888 0.04,0.1614 -0.4,0.1614 -0.44,0 -0.62,-0.0726 -0.4,-0.1614 z m 324.5,-0.007 c 0.23101,-0.0924 0.50701,-0.0811 0.61335,0.0253 0.10633,0.10633 -0.0827,0.18198 -0.42,0.16809 -0.3728,-0.0154 -0.44861,-0.0912 -0.19335,-0.19334 z m 18.24,0 c 0.23101,-0.0924 0.50701,-0.0811 0.61335,0.0253 0.10633,0.10633 -0.0827,0.18198 -0.42,0.16809 -0.3728,-0.0154 -0.44861,-0.0912 -0.19335,-0.19334 z m -576.97427,-0.33332 c 0.57516,-0.0712 1.43916,-0.0698 1.92,0.003 0.48085,0.073 0.0103,0.13127 -1.04573,0.12948 -1.056,-0.003 -1.44942,-0.0615 -0.87427,-0.13274 z m 224,0 c 0.57517,-0.0712 1.43917,-0.0698 1.92,0.003 0.48087,0.073 0.0102,0.13127 -1.04573,0.12948 -1.056,-0.003 -1.4494,-0.0615 -0.87427,-0.13274 z m 343.19427,0.003 c 0.484,-0.0733 1.276,-0.0733 1.76,0 0.484,0.0734 0.088,0.13332 -0.88,0.13332 -0.968,0 -1.364,-0.06 -0.88,-0.13332 z m -347.02,-10.86937 c 0.23101,-0.0924 0.50701,-0.0811 0.61335,0.0253 0.10633,0.10633 -0.0827,0.18198 -0.42,0.16809 -0.3728,-0.0154 -0.44861,-0.0912 -0.19335,-0.19334 z m 315.52,0 c 0.23101,-0.0924 0.50701,-0.0811 0.61335,0.0253 0.10633,0.10633 -0.0827,0.18198 -0.42,0.16809 -0.3728,-0.0154 -0.44861,-0.0912 -0.19335,-0.19334 z m 82.24,0 c 0.23101,-0.0924 0.50701,-0.0811 0.61335,0.0253 0.10633,0.10633 -0.0827,0.18198 -0.42,0.16809 -0.3728,-0.0154 -0.44861,-0.0912 -0.19335,-0.19334 z M 473.41583,474.05652 c 4e-5,-11.44 0.0401,-16.07353 0.089,-10.29677 0.0489,5.77677 0.0489,15.13677 -7e-5,20.8 -0.0489,5.66324 -0.089,0.93677 -0.0889,-10.50323 z m 11.52468,-23.52 c 0,-24.376 0.038,-34.348 0.0844,-22.16 0.0464,12.188 0.0464,32.132 0,44.32 -0.0464,12.188 -0.0844,2.216 -0.0844,-22.16 z m 295.86969,21.25335 c 0.0154,-0.3728 0.0912,-0.44861 0.19335,-0.19335 0.0924,0.23101 0.0811,0.50701 -0.0253,0.61335 -0.10634,0.10633 -0.18199,-0.0827 -0.1681,-0.42 z m 11.27719,-2.05335 c 0,-1.144 0.0581,-1.612 0.12905,-1.04 0.071,0.572 0.071,1.508 0,2.08 -0.071,0.572 -0.12905,0.104 -0.12905,-1.04 z m -11.27719,0.13335 c 0.0154,-0.3728 0.0912,-0.44861 0.19335,-0.19335 0.0924,0.23101 0.0811,0.50701 -0.0253,0.61335 -0.10634,0.10633 -0.18199,-0.0827 -0.1681,-0.42 z m -54.80525,-3.87194 c 0.23101,-0.0924 0.50701,-0.0811 0.61335,0.0253 0.10633,0.10634 -0.0827,0.18198 -0.42,0.1681 -0.3728,-0.0154 -0.44861,-0.0912 -0.19335,-0.19335 z m -554.74,-7.70109 c 4.004,-0.0508 10.556,-0.0508 14.56,0 4.004,0.0508 0.728,0.0923 -7.28,0.0923 -8.008,0 -11.284,-0.0416 -7.28,-0.0923 z m 162.18525,-3.14697 c 0.0154,-0.3728 0.0912,-0.44861 0.19335,-0.19335 0.0924,0.23101 0.0811,0.50701 -0.0253,0.61335 -0.10634,0.10633 -0.18199,-0.0827 -0.1681,-0.42 z m 294.49011,-3.65335 c 0,-1.672 0.0539,-2.356 0.11984,-1.52 0.0659,0.836 0.0659,2.204 0,3.04 -0.0659,0.836 -0.11984,0.152 -0.11984,-1.52 z m 82.52535,1.76 c 0.004,-0.704 0.0691,-0.95433 0.14563,-0.55625 0.0765,0.39804 0.0736,0.97404 -0.006,1.28 -0.0801,0.30592 -0.14272,-0.0198 -0.13917,-0.72375 z m -11.82919,-2.56 c 0.003,-0.88 0.0645,-1.20201 0.13812,-0.71561 0.0735,0.48643 0.0716,1.20643 -0.004,1.6 -0.0759,0.3936 -0.13613,-0.004 -0.13373,-0.88439 z m 11.82272,-2.4 c 0,-0.616 0.0659,-0.868 0.14634,-0.56 0.0805,0.308 0.0805,0.812 0,1.12 -0.0805,0.308 -0.14634,0.056 -0.14634,-0.56 z M 333.4502,445.22987 c 0.0154,-0.3728 0.0912,-0.44861 0.19335,-0.19335 0.0924,0.23101 0.0811,0.50701 -0.0253,0.61335 -0.10634,0.10633 -0.18199,-0.0827 -0.1681,-0.42 z m -61.54525,-0.0253 c 0.22,-0.0888 0.58,-0.0888 0.8,0 0.22,0.0888 0.04,0.1614 -0.4,0.1614 -0.44,0 -0.62,-0.0726 -0.4,-0.1614 z m 201.5097,-20.74807 c 6e-5,-10.032 0.0406,-14.08976 0.0901,-9.01721 0.0495,5.07254 0.0495,13.28054 -9e-5,18.24 -0.0496,4.95945 -0.0901,0.80921 -0.0901,-9.22279 z m 306.0303,7.62141 c 0.23101,-0.0924 0.50701,-0.0811 0.61335,0.0253 0.10633,0.10634 -0.0827,0.18198 -0.42,0.1681 -0.3728,-0.0154 -0.44861,-0.0912 -0.19335,-0.19335 z m 8,-0.64 c 0.23101,-0.0924 0.50701,-0.0811 0.61335,0.0253 0.10633,0.10634 -0.0827,0.18198 -0.42,0.1681 -0.3728,-0.0154 -0.44861,-0.0912 -0.19335,-0.19335 z m 2.00525,-0.92806 c 0.0154,-0.3728 0.0912,-0.44861 0.19335,-0.19335 0.0924,0.23101 0.0811,0.50701 -0.0253,0.61335 -0.10634,0.10633 -0.18199,-0.0827 -0.1681,-0.42 z m -35.92525,-15.07194 c 0.23101,-0.0924 0.50701,-0.0811 0.61335,0.0253 0.10633,0.10634 -0.0827,0.18198 -0.42,0.1681 -0.3728,-0.0154 -0.44861,-0.0912 -0.19335,-0.19335 z m 7.36,0 c 0.23101,-0.0924 0.50701,-0.0811 0.61335,0.0253 0.10633,0.10634 -0.0827,0.18198 -0.42,0.1681 -0.3728,-0.0154 -0.44861,-0.0912 -0.19335,-0.19335 z m -93.76,-0.32 c 0.23101,-0.0924 0.50701,-0.0811 0.61335,0.0253 0.10633,0.10634 -0.0827,0.18198 -0.42,0.1681 -0.3728,-0.0154 -0.44861,-0.0912 -0.19335,-0.19335 z m 4.16,0 c 0.23101,-0.0924 0.50701,-0.0811 0.61335,0.0253 0.10633,0.10634 -0.0827,0.18198 -0.42,0.1681 -0.3728,-0.0154 -0.44861,-0.0912 -0.19335,-0.19335 z m -394.9,-8.63334 c 0.22,-0.0888 0.58,-0.0888 0.8,0 0.22,0.0888 0.04,0.1614 -0.4,0.1614 -0.44,0 -0.62,-0.0726 -0.4,-0.1614 z m 82.88,-1.6 c 0.22,-0.0888 0.58,-0.0888 0.8,0 0.22,0.0888 0.04,0.1614 -0.4,0.1614 -0.44,0 -0.62,-0.0726 -0.4,-0.1614 z m 5.12,0 c 0.22,-0.0888 0.58,-0.0888 0.8,0 0.22,0.0888 0.04,0.1614 -0.4,0.1614 -0.44,0 -0.62,-0.0726 -0.4,-0.1614 z m 301.92608,-0.01 c 0.31136,-0.0811 0.74336,-0.0758 0.96,0.0118 0.21668,0.0876 -0.0381,0.15401 -0.56608,0.14752 -0.528,-0.006 -0.70524,-0.0782 -0.39392,-0.1594 z m 5.27392,0.01 c 0.22,-0.0888 0.58,-0.0888 0.8,0 0.22,0.0888 0.04,0.1614 -0.4,0.1614 -0.44,0 -0.62,-0.0726 -0.4,-0.1614 z m 82.56,0 c 0.22,-0.0888 0.58,-0.0888 0.8,0 0.22,0.0888 0.04,0.1614 -0.4,0.1614 -0.44,0 -0.62,-0.0726 -0.4,-0.1614 z m 5.28608,-0.01 c 0.31136,-0.0811 0.74336,-0.0758 0.96,0.0118 0.21668,0.0876 -0.0381,0.15401 -0.56608,0.14752 -0.528,-0.006 -0.70524,-0.0782 -0.39392,-0.1594 z M 366.32495,376.71783 c 0.23101,-0.0924 0.50701,-0.0811 0.61335,0.0253 0.10633,0.10634 -0.0827,0.18199 -0.42,0.1681 -0.3728,-0.0154 -0.44861,-0.0912 -0.19335,-0.19334 z m 389.76,0 c 0.23101,-0.0924 0.50701,-0.0811 0.61335,0.0253 0.10633,0.10634 -0.0827,0.18199 -0.42,0.1681 -0.3728,-0.0154 -0.44861,-0.0912 -0.19335,-0.19334 z M 39.820499,331.17652 c 0,-24.376 0.03799,-34.348 0.08442,-22.16 0.04643,12.188 0.04643,32.132 0,44.32 -0.04643,12.188 -0.08442,2.216 -0.08442,-22.16 z m 36.264455,43.94141 c 0.230998,-0.0924 0.506998,-0.0811 0.613334,0.0253 0.106333,0.10634 -0.08267,0.18198 -0.42,0.1681 -0.372784,-0.0154 -0.448608,-0.0912 -0.193334,-0.19335 z M 227.6605,331.17652 c 0,-24.376 0.038,-34.348 0.0844,-22.16 0.0464,12.188 0.0464,32.132 0,44.32 -0.0464,12.188 -0.0844,2.216 -0.0844,-22.16 z m 50.21472,39.04 c 0,-2.904 0.0485,-4.092 0.10781,-2.64 0.0593,1.452 0.0593,3.828 0,5.28 -0.0593,1.452 -0.10781,0.264 -0.10781,-2.64 z m 274.88001,0 c 0,-2.904 0.0485,-4.092 0.1078,-2.64 0.0593,1.452 0.0593,3.828 0,5.28 -0.0593,1.452 -0.1078,0.264 -0.1078,-2.64 z m -391.02243,-20.48 c 0,-8.36 0.0413,-11.78 0.0919,-7.6 0.0505,4.18 0.0505,11.02 0,15.2 -0.0505,4.18 -0.0919,0.76 -0.0919,-7.6 z m 628.75459,0.64 c 0,-1.144 0.0581,-1.612 0.12905,-1.04 0.071,0.572 0.071,1.508 0,2.08 -0.071,0.572 -0.12905,0.104 -0.12905,-1.04 z m -590.08655,-0.64 c 0,-0.968 0.06,-1.364 0.13331,-0.88 0.0733,0.484 0.0733,1.276 0,1.76 -0.0733,0.484 -0.13331,0.088 -0.13331,-0.88 z m 474.38411,-10.79965 c 3.74,-0.0512 9.86,-0.0512 13.6,0 3.74,0.0512 0.68,0.0931 -6.8,0.0931 -7.48,0 -10.54,-0.0419 -6.8,-0.0931 z m -350.29475,-2.827 c 0.0154,-0.3728 0.0912,-0.44861 0.19335,-0.19335 0.0924,0.23101 0.0811,0.50701 -0.0253,0.61335 -0.10634,0.10633 -0.18199,-0.0827 -0.1681,-0.42 z m 252.8,-0.64 c 0.0154,-0.3728 0.0912,-0.44861 0.19335,-0.19335 0.0924,0.23101 0.0811,0.50701 -0.0253,0.61335 -0.10634,0.10633 -0.18199,-0.0827 -0.1681,-0.42 z M 73.204954,334.79793 c 0.230998,-0.0924 0.506998,-0.0811 0.613334,0.0253 0.106333,0.10634 -0.08267,0.18198 -0.42,0.1681 -0.372784,-0.0154 -0.448608,-0.0912 -0.193334,-0.19335 z m 111.359996,0 c 0.231,-0.0924 0.50701,-0.0811 0.61334,0.0253 0.10633,0.10634 -0.0827,0.18198 -0.42,0.1681 -0.37279,-0.0154 -0.44861,-0.0912 -0.19334,-0.19335 z m 205.59152,-1.54141 c 0.003,-0.88 0.0645,-1.20201 0.13812,-0.71561 0.0735,0.48643 0.0716,1.20643 -0.004,1.6 -0.0759,0.3936 -0.13613,-0.004 -0.13373,-0.88439 z m 175.97085,0.64 c 0.006,-0.528 0.0782,-0.70525 0.15939,-0.39392 0.0811,0.31136 0.0758,0.74336 -0.0118,0.96 -0.0876,0.21667 -0.15401,-0.0381 -0.14752,-0.56608 z m -175.9752,-4.32 c 0,-0.792 0.0624,-1.116 0.13866,-0.72 0.0763,0.396 0.0763,1.044 0,1.44 -0.0763,0.396 -0.13866,0.072 -0.13866,-0.72 z m -65.63664,-1.6 c 0,-0.44 0.0726,-0.62 0.16141,-0.4 0.0888,0.22 0.0888,0.58 0,0.8 -0.0888,0.22 -0.16141,0.04 -0.16141,-0.4 z m 241.61184,-0.8 c 0.006,-0.528 0.0782,-0.70525 0.15939,-0.39392 0.0811,0.31136 0.0758,0.74336 -0.0118,0.96 -0.0876,0.21667 -0.15401,-0.0381 -0.14752,-0.56608 z M 335.6902,326.50987 c 0.0154,-0.3728 0.0912,-0.44861 0.19335,-0.19335 0.0924,0.23101 0.0811,0.50701 -0.0253,0.61335 -0.10634,0.10633 -0.18199,-0.0827 -0.1681,-0.42 z m 241.6,-0.32 c 0.0154,-0.3728 0.0912,-0.44861 0.19335,-0.19335 0.0924,0.23101 0.0811,0.50701 -0.0253,0.61335 -0.10634,0.10633 -0.18199,-0.0827 -0.1681,-0.42 z M 72.564954,323.91793 c 0.230998,-0.0924 0.506998,-0.0811 0.613334,0.0253 0.106333,0.10634 -0.08267,0.18198 -0.42,0.1681 -0.372784,-0.0154 -0.448608,-0.0912 -0.193334,-0.19335 z m 89.166426,-13.06141 c 8e-5,-7.392 0.0421,-10.3703 0.0933,-6.61845 0.0512,3.75184 0.0512,9.79984 -1.5e-4,13.44 -0.0513,3.64015 -0.0932,0.57045 -0.0931,-6.82155 z m 21.87357,13.06141 c 0.231,-0.0924 0.50701,-0.0811 0.61334,0.0253 0.10633,0.10634 -0.0827,0.18198 -0.42,0.1681 -0.37279,-0.0154 -0.44861,-0.0912 -0.19334,-0.19335 z M 85.825651,311.17652 c 0.0036,-0.704 0.06909,-0.95432 0.145626,-0.55627 0.07654,0.39806 0.07363,0.97406 -0.0065,1.28 -0.08009,0.30595 -0.14272,-0.0197 -0.139168,-0.72373 z m 700.339299,0.90141 c 0.23101,-0.0924 0.50701,-0.0811 0.61335,0.0253 0.10633,0.10633 -0.0827,0.18196 -0.42,0.16807 -0.3728,-0.0154 -0.44861,-0.0912 -0.19335,-0.19334 z M 96.330218,311.46986 c 0.01536,-0.37279 0.09118,-0.44861 0.193331,-0.19334 0.09244,0.231 0.08107,0.507 -0.02525,0.61334 -0.106333,0.10633 -0.181965,-0.0827 -0.168071,-0.42 z m 633.305262,-0.13334 c 0,-0.44 0.0726,-0.62 0.16141,-0.4 0.0888,0.22 0.0888,0.58 0,0.8 -0.0888,0.22 -0.16141,0.04 -0.16141,-0.4 z m 0.0118,-2.72 c 0.006,-0.528 0.0782,-0.70526 0.15939,-0.39391 0.0811,0.31135 0.0758,0.74335 -0.0118,0.96 -0.0876,0.21665 -0.15401,-0.0381 -0.14752,-0.56609 z M 96.330218,307.94986 c 0.01536,-0.37279 0.09118,-0.44861 0.193331,-0.19334 0.09244,0.231 0.08107,0.507 -0.02525,0.61334 -0.106333,0.10633 -0.181965,-0.0827 -0.168071,-0.42 z M 71.604954,297.67793 c 0.230998,-0.0924 0.506998,-0.0811 0.613334,0.0252 0.106333,0.10633 -0.08267,0.18196 -0.42,0.16807 -0.372784,-0.0154 -0.448608,-0.0912 -0.193334,-0.19334 z m 111.019996,0.007 c 0.22,-0.0888 0.58,-0.0888 0.8,0 0.22,0.0888 0.04,0.16141 -0.4,0.16141 -0.44,0 -0.62,-0.0726 -0.4,-0.16141 z m 178.26,-1.92666 c 0.23101,-0.0924 0.50701,-0.0811 0.61335,0.0252 0.10633,0.10633 -0.0827,0.18196 -0.42,0.16807 -0.3728,-0.0154 -0.44861,-0.0912 -0.19335,-0.19333 z m 3.84,0 c 0.23101,-0.0924 0.50701,-0.0811 0.61335,0.0252 0.10633,0.10633 -0.0827,0.18196 -0.42,0.16807 -0.3728,-0.0154 -0.44861,-0.0912 -0.19335,-0.19333 z m -290.879996,-8.64 c 0.230998,-0.0924 0.506998,-0.0811 0.613334,0.0252 0.106333,0.10633 -0.08267,0.18196 -0.42,0.16807 -0.372784,-0.0154 -0.448608,-0.0912 -0.193334,-0.19333 z m 286.379996,-1.59334 c 0.22,-0.0888 0.58,-0.0888 0.8,0 0.22,0.0888 0.04,0.16141 -0.4,0.16141 -0.44,0 -0.62,-0.0726 -0.4,-0.16141 z m 4.8,0 c 0.22,-0.0888 0.58,-0.0888 0.8,0 0.22,0.0888 0.04,0.16141 -0.4,0.16141 -0.44,0 -0.62,-0.0726 -0.4,-0.16141 z m 236.5,-0.007 c 0.23101,-0.0924 0.50701,-0.0811 0.61335,0.0253 0.10633,0.10633 -0.0827,0.18196 -0.42,0.16807 -0.3728,-0.0154 -0.44861,-0.0912 -0.19335,-0.19334 z m 4.46,0.007 c 0.22,-0.0888 0.58,-0.0888 0.8,0 0.22,0.0888 0.04,0.16141 -0.4,0.16141 -0.44,0 -0.62,-0.0726 -0.4,-0.16141 z m 149.12,0 c 0.22,-0.0888 0.58,-0.0888 0.8,0 0.22,0.0888 0.04,0.16141 -0.4,0.16141 -0.44,0 -0.62,-0.0726 -0.4,-0.16141 z m 5.12,0 c 0.22,-0.0888 0.58,-0.0888 0.8,0 0.22,0.0888 0.04,0.16141 -0.4,0.16141 -0.44,0 -0.62,-0.0726 -0.4,-0.16141 z M 31.183165,161.57652 c 0,-62.039997 0.0368,-87.419997 0.08178,-56.4 0.04498,31.02 0.04498,81.78 0,112.8 -0.04498,31.02 -0.08178,5.64 -0.08178,-56.4 z m 27.920841,103.44132 17.999053,-0.0866 0.08095,-52.87736 0.08095,-52.87736 22.800031,-0.003 22.80002,-0.003 -22.71908,0.0854 -22.719077,0.0853 -0.08095,52.87787 -0.08095,52.87789 -18.08,0.004 -18.08,0.004 17.999052,-0.0866 z m 189.280944,-10e-4 c 6.292,-0.0485 16.588,-0.0485 22.88,0 6.292,0.0485 1.144,0.0882 -11.44,0.0882 -12.584,0 -17.732,-0.0397 -11.44,-0.0882 z m 119.84,-1.2e-4 c 28.204,-0.0451 74.356,-0.0451 102.56,0 28.204,0.0451 5.128,0.082 -51.28,0.082 -56.408,0 -79.484,-0.0369 -51.28,-0.082 z m 229.94519,2e-5 c 13.87385,-0.0462 36.48185,-0.0462 50.24,10e-6 13.75814,0.0462 2.40681,0.0839 -25.22519,0.0839 -27.632,-10e-6 -38.88867,-0.0378 -25.01481,-0.0839 z m 86.38089,-0.30178 c 0.31136,-0.0811 0.74336,-0.0758 0.96,0.0119 0.21668,0.0877 -0.0381,0.15404 -0.56608,0.14752 -0.528,-0.007 -0.70524,-0.0782 -0.39392,-0.15938 z m 5.59392,-0.31018 c 0.22,-0.0888 0.58,-0.0888 0.8,0 0.22,0.0888 0.04,0.16141 -0.4,0.16141 -0.44,0 -0.62,-0.0726 -0.4,-0.16141 z M 353.42012,196.29652 c 0,-22.352 0.0382,-31.44882 0.0848,-20.21515 0.0466,11.23366 0.0466,29.52166 -3e-5,40.64 -0.0466,11.11833 -0.0848,1.92715 -0.0848,-20.42485 z m 325.68483,40.25942 c 0.308,-0.0805 0.812,-0.0805 1.12,0 0.308,0.0805 0.056,0.14634 -0.56,0.14634 -0.616,0 -0.868,-0.0659 -0.56,-0.14634 z m 6.26,-0.31801 c 0.23101,-0.0924 0.50701,-0.0811 0.61335,0.0252 0.10633,0.10633 -0.0827,0.18196 -0.42,0.16807 -0.3728,-0.0154 -0.44861,-0.0912 -0.19335,-0.19334 z m 4.16,-0.32 c 0.23101,-0.0924 0.50701,-0.0811 0.61335,0.0252 0.10633,0.10633 -0.0827,0.18196 -0.42,0.16807 -0.3728,-0.0154 -0.44861,-0.0912 -0.19335,-0.19334 z m -558.42,-76.47334 c 0.22,-0.0888 0.58,-0.0888 0.8,0 0.22,0.0888 0.04,0.16141 -0.4,0.16141 -0.44,0 -0.62,-0.0726 -0.4,-0.16141 z m 630.82525,-2.53473 c 0.0154,-0.37279 0.0912,-0.44861 0.19335,-0.19334 0.0924,0.231 0.0811,0.507 -0.0253,0.61334 -0.10634,0.10633 -0.18199,-0.0827 -0.1681,-0.42 z m 0.37546,-6.05334 c 0.004,-0.704 0.0691,-0.95432 0.14563,-0.55627 0.0765,0.39806 0.0736,0.97406 -0.006,1.28 -0.0801,0.30595 -0.14272,-0.0197 -0.13917,-0.72373 z m -0.006,-13.6 c 0,-0.616 0.0658,-0.868 0.14633,-0.56 0.0805,0.308 0.0805,0.812 0,1.12 -0.0805,0.308 -0.14633,0.056 -0.14633,-0.56 z M 77.259981,92.456523 c 0,-21.736 0.03822,-30.628 0.08493,-19.76 0.04671,10.868 0.04671,28.651997 0,39.519997 -0.04671,10.868 -0.08493,1.976 -0.08493,-19.759997 z m 85.684969,39.139417 c 0.308,-0.0805 0.812,-0.0805 1.12,0 0.308,0.0805 0.056,0.14634 -0.56,0.14634 -0.616,0 -0.868,-0.0658 -0.56,-0.14634 z m 598.98525,-0.28608 c 0.0154,-0.37279 0.0912,-0.44861 0.19335,-0.19334 0.0924,0.231 0.0811,0.507 -0.0253,0.61334 -0.10634,0.10633 -0.18199,-0.0827 -0.1681,-0.42 z m -592.08525,-0.0319 c 0.231,-0.0924 0.50701,-0.0811 0.61334,0.0252 0.10633,0.10633 -0.0827,0.18196 -0.42,0.16807 -0.37279,-0.0154 -0.44861,-0.0912 -0.19334,-0.19333 z M 353.41958,91.336523 c 0,-20.064 0.0384,-28.319091 0.0853,-18.344647 0.0469,9.974445 0.0469,26.390445 3e-5,36.480004 -0.0469,10.08955 -0.0853,1.92864 -0.0853,-18.135357 z m -93.16962,0.32 c 0.001,-1.232 0.0593,-1.696787 0.12853,-1.032864 0.0693,0.663926 0.0681,1.671926 -0.003,2.24 -0.0707,0.568077 -0.12737,0.02486 -0.12595,-1.207136 z M 692.72495,55.757928 c 0.23101,-0.09244 0.50701,-0.08107 0.61335,0.02525 0.10633,0.106332 -0.0827,0.181964 -0.42,0.16807 -0.3728,-0.01536 -0.44861,-0.09118 -0.19335,-0.193331 z m -3.84,-0.32 c 0.23101,-0.09244 0.50701,-0.08107 0.61335,0.02525 0.10633,0.106332 -0.0827,0.181964 -0.42,0.16807 -0.3728,-0.01536 -0.44861,-0.09118 -0.19335,-0.193331 z m -5.61392,-0.323162 c 0.31136,-0.08113 0.74336,-0.0758 0.96,0.01187 0.21668,0.08766 -0.0381,0.154038 -0.56608,0.147517 -0.528,-0.0065 -0.70524,-0.07824 -0.39392,-0.159373 z m -10.88608,-0.331354 c 0.66,-0.06904 1.74,-0.06904 2.4,0 0.66,0.06904 0.12,0.125524 -1.2,0.125524 -1.32,0 -1.86,-0.05648 -1.2,-0.125524 z m -495.5,-1.265484 c 0.231,-0.09244 0.50701,-0.08107 0.61334,0.02525 0.10633,0.106332 -0.0827,0.181964 -0.42,0.16807 -0.37279,-0.01536 -0.44861,-0.09118 -0.19334,-0.193331 z m -4.5,-0.313335 c 0.22,-0.08877 0.58,-0.08877 0.8,0 0.22,0.08877 0.04,0.161405 -0.4,0.161405 -0.44,0 -0.62,-0.07263 -0.4,-0.161405 z m 43.52,-24.987798 c 4.268,-0.05041 11.252,-0.05041 15.52,0 4.268,0.05041 0.776,0.09165 -7.76,0.09165 -8.536,0 -12.028,-0.04124 -7.76,-0.09165 z m 478.42,-0.938869 c 0.23101,-0.09244 0.50701,-0.08107 0.61335,0.02526 0.10633,0.106334 -0.0827,0.181965 -0.42,0.168071 -0.3728,-0.01535 -0.44861,-0.09118 -0.19335,-0.193334 z m 11.84212,-0.341181 c 4.28019,-0.05044 11.19219,-0.05038 15.36,1.13e-4 4.16784,0.0505 0.66588,0.09176 -7.78212,0.0917 -8.448,-6.3e-5 -11.85804,-0.04138 -7.57788,-0.09181 z M 71.718909,8.3765289 c 33.557671,-0.044907 88.565671,-0.044908 122.240001,-2.2e-6 33.67432,0.044906 6.21804,0.081648 -61.01396,0.081649 -67.231996,9e-7 -94.783718,-0.03674 -61.226041,-0.081647 z"
         id="path1236" />
      <path
         style="fill:#af071f;fill-opacity:1;stroke-width:0.32"
         d="m 440.94495,723.65652 c 0.95597,-0.968 1.81015,-1.76 1.89815,-1.76 0.088,0 -0.62218,0.792 -1.57815,1.76 -0.95596,0.968 -1.81014,1.76 -1.89814,1.76 -0.088,0 0.62218,-0.792 1.57814,-1.76 z m -385.960816,-5.84 c -0.398038,-0.50755 -0.38672,-0.51885 0.12082,-0.12083 0.308,0.24157 0.56,0.49357 0.56,0.56 0,0.26339 -0.262781,0.0939 -0.68082,-0.43917 z M 750.38495,704.81569 c 0,-0.0664 0.252,-0.31843 0.56,-0.56 0.50756,-0.39802 0.51885,-0.38672 0.12084,0.12083 -0.41805,0.53303 -0.68084,0.70256 -0.68084,0.43917 z m 3.52,-3.52 c 0,-0.0664 0.252,-0.31843 0.56,-0.56 0.50756,-0.39802 0.51885,-0.38672 0.12084,0.12083 -0.41805,0.53303 -0.68084,0.70256 -0.68084,0.43917 z m -333.62012,-41.55917 -0.93988,-1.04 1.04,0.93987 c 0.96944,0.8761 1.18711,1.14013 0.93988,1.14013 -0.0551,0 -0.52308,-0.468 -1.04,-1.04 z m 24.77929,-20.32 c -0.39801,-0.50755 -0.38672,-0.51885 0.12083,-0.12083 0.53303,0.41805 0.70256,0.68083 0.43917,0.68083 -0.0664,0 -0.31843,-0.252 -0.56,-0.56 z m -3.2,-3.2 c -0.39801,-0.50755 -0.38672,-0.51885 0.12083,-0.12083 0.308,0.24157 0.56,0.49357 0.56,0.56 0,0.26339 -0.26278,0.0939 -0.68083,-0.43917 z m 178.76083,-95.44 c 0.31856,-0.352 0.6512,-0.64 0.7392,-0.64 0.088,0 -0.10064,0.288 -0.4192,0.64 -0.31856,0.352 -0.6512,0.64 -0.7392,0.64 -0.088,0 0.10064,-0.288 0.4192,-0.64 z m -564.959996,-2.4 c 1.13383,-1.144 2.13351,-2.08 2.22151,-2.08 0.088,0 -0.76768,0.936 -1.90151,2.08 -1.133831,1.144 -2.133511,2.08 -2.221511,2.08 -0.088,0 0.76768,-0.936 1.901511,-2.08 z m 155.969596,-2.48 -0.6096,-0.72 0.72,0.6096 c 0.396,0.33527 0.72,0.65927 0.72,0.72 0,0.25607 -0.25753,0.067 -0.8304,-0.6096 z m 413.3104,0.59917 c 0,-0.0664 0.252,-0.31843 0.56,-0.56 0.50756,-0.39802 0.51885,-0.38672 0.12084,0.12083 -0.41805,0.53303 -0.68084,0.70256 -0.68084,0.43917 z m 152.14797,-2.51917 -1.58797,-1.68 1.68,1.58797 c 1.56109,1.47558 1.82676,1.77203 1.58797,1.77203 -0.0506,0 -0.80662,-0.756 -1.68,-1.68 z m -569.29837,-1.92 -0.6096,-0.72 0.72,0.6096 c 0.67662,0.57287 0.86568,0.8304 0.6096,0.8304 -0.0607,0 -0.38472,-0.324 -0.72,-0.72 z m 85.9504,-2 c 0.95598,-0.968 1.81014,-1.76 1.89814,-1.76 0.088,0 -0.62216,0.792 -1.57814,1.76 -0.95597,0.968 -1.81013,1.76 -1.89813,1.76 -0.088,0 0.62216,-0.792 1.57813,-1.76 z m 491.04,-42.72 c 0.31856,-0.352 0.6512,-0.64 0.7392,-0.64 0.088,0 -0.10064,0.288 -0.4192,0.64 -0.31856,0.352 -0.6512,0.64 -0.7392,0.64 -0.088,0 0.10064,-0.288 0.4192,-0.64 z m -513.14422,-26.8 -0.77578,-0.88 0.88,0.77578 c 0.484,0.42669 0.88,0.82269 0.88,0.88 0,0.25097 -0.25913,0.0467 -0.98422,-0.77578 z m 14.26422,-19.92 c 0.31856,-0.352 0.6512,-0.64 0.7392,-0.64 0.088,0 -0.10064,0.288 -0.4192,0.64 -0.31855,0.352 -0.65119,0.64 -0.73919,0.64 -0.088,0 0.10064,-0.288 0.41919,-0.64 z m 454.6896,-4.88 -0.6096,-0.72 0.72,0.6096 c 0.67661,0.57287 0.86567,0.8304 0.6096,0.8304 -0.0607,0 -0.38473,-0.324 -0.72,-0.72 z m -93.2496,-10.92083 c 0,-0.0664 0.252,-0.31843 0.56,-0.56 0.50756,-0.39802 0.51885,-0.38672 0.12084,0.12083 -0.41805,0.53303 -0.68084,0.70256 -0.68084,0.43917 z m 1.28,-1.28 c 0,-0.0664 0.252,-0.31843 0.56,-0.56 0.50756,-0.39802 0.51885,-0.38672 0.12084,0.12083 -0.41805,0.53303 -0.68084,0.70256 -0.68084,0.43917 z m 124.77578,-2.99917 -0.77578,-0.88 0.88,0.77578 c 0.8225,0.72509 1.02676,0.98422 0.77578,0.98422 -0.0573,0 -0.45331,-0.396 -0.88,-0.88 z m -569.09578,-51.92 c 0.31856,-0.352 0.6512,-0.64 0.7392,-0.64 0.088,0 -0.10064,0.288 -0.4192,0.64 -0.31855,0.352 -0.65119,0.64 -0.73919,0.64 -0.088,0 0.10064,-0.288 0.41919,-0.64 z m 572.27917,-25.84 c -0.39801,-0.50755 -0.38672,-0.51885 0.12083,-0.12083 0.53303,0.41805 0.70256,0.68083 0.43917,0.68083 -0.0664,0 -0.31843,-0.252 -0.56,-0.56 z m -580.47999,-3.84 c -0.39803,-0.50755 -0.38672,-0.51885 0.12082,-0.12083 0.308,0.24157 0.56,0.49357 0.56,0.56 0,0.26339 -0.26278,0.0939 -0.68082,-0.43917 z m 587.83999,-5.12 c -0.39801,-0.50755 -0.38672,-0.51885 0.12083,-0.12083 0.308,0.24157 0.56,0.49357 0.56,0.56 0,0.26339 -0.26278,0.0939 -0.68083,-0.43917 z m -582.35917,-9.2 c 0.59705,-0.616 1.15755,-1.12 1.24555,-1.12 0.088,0 -0.3285,0.504 -0.92555,1.12 -0.59705,0.616 -1.15754,1.12 -1.24554,1.12 -0.088,0 0.32849,-0.504 0.92554,-1.12 z M 82.224954,320.4957 c 0,-0.0664 0.252,-0.31844 0.56,-0.56 0.507539,-0.39803 0.518857,-0.38672 0.120819,0.12082 -0.418039,0.53304 -0.680819,0.70256 -0.680819,0.43918 z m -0.04082,-19.31918 c -0.398038,-0.50754 -0.38672,-0.51885 0.12082,-0.12082 0.308,0.24156 0.56,0.49356 0.56,0.56 0,0.26338 -0.262781,0.0939 -0.68082,-0.43918 z m 307.199986,-4.48 c -0.39801,-0.50754 -0.38672,-0.51885 0.12083,-0.12082 0.308,0.24156 0.56,0.49356 0.56,0.56 0,0.26338 -0.26278,0.0939 -0.68083,-0.43918 z m -1.6,-1.6 c -0.39801,-0.50754 -0.38672,-0.51885 0.12083,-0.12082 0.308,0.24156 0.56,0.49356 0.56,0.56 0,0.26338 -0.26278,0.0939 -0.68083,-0.43918 z m 350.44083,-78 c 0.41335,-0.44 0.82356,-0.8 0.91156,-0.8 0.088,0 -0.17821,0.36 -0.59156,0.8 -0.41334,0.44 -0.82355,0.8 -0.91155,0.8 -0.088,0 0.17821,-0.36 0.59155,-0.8 z m -517.9504,-34.48 -0.6096,-0.72 0.72,0.6096 c 0.67662,0.57287 0.86568,0.8304 0.6096,0.8304 -0.0607,0 -0.38472,-0.324 -0.72,-0.72 z m -48,-2.24 -0.6096,-0.72 0.72,0.6096 c 0.67662,0.57287 0.86568,0.8304 0.6096,0.8304 -0.0607,0 -0.38472,-0.324 -0.72,-0.72 z m 41.92,-3.84 -0.6096,-0.72 0.72,0.6096 c 0.67662,0.57287 0.86568,0.8304 0.6096,0.8304 -0.0607,0 -0.38472,-0.324 -0.72,-0.72 z m -47.21042,-1.44 c -0.39803,-0.50754 -0.38672,-0.51885 0.12082,-0.12082 0.53304,0.41804 0.70256,0.68082 0.43918,0.68082 -0.0664,0 -0.31844,-0.252 -0.56,-0.56 z m 76.36082,-42.64 c 1.04499,-1.056 1.97197,-1.92 2.05997,-1.92 0.088,0 -0.69498,0.864 -1.73997,1.92 -1.04498,1.056 -1.97196,1.92 -2.05996,1.92 -0.088,0 0.69498,-0.864 1.73996,-1.92 z M 770.50412,59.256523 c -0.39801,-0.507539 -0.38672,-0.518858 0.12083,-0.120819 0.308,0.241552 0.56,0.493552 0.56,0.56 0,0.263372 -0.26278,0.09386 -0.68083,-0.439181 z m -4.48,-4.48 c -0.39801,-0.507539 -0.38672,-0.518858 0.12083,-0.120819 0.53303,0.418038 0.70256,0.680819 0.43917,0.680819 -0.0664,0 -0.31843,-0.252 -0.56,-0.56 z m -524.29422,-7.52 -1.26495,-1.36 1.36,1.264944 c 1.26479,1.176384 1.50705,1.455056 1.26495,1.455056 -0.0523,0 -0.66428,-0.612 -1.36,-1.36 z"
         id="path1234" />
      <path
         style="fill:#af071f;fill-opacity:1;stroke-width:0.32"
         d="m 211.87848,761.33652 c 110.64545,-0.0443 291.79745,-0.0443 402.56001,0 110.76256,0.0443 20.23446,0.0805 -201.17354,0.0805 -221.408,0 -312.03191,-0.0362 -201.38647,-0.0805 z m 421.32993,-13.7599 c 6.2169,-0.0486 16.2969,-0.0486 22.4,6e-5 6.1031,0.0486 1.01654,0.0884 -11.30346,0.0883 -12.32,-3e-5 -17.31344,-0.0398 -11.09654,-0.0884 z m -178.24,-0.32 c 6.2169,-0.0486 16.2969,-0.0485 22.4,6e-5 6.1031,0.0486 1.01654,0.0884 -11.30346,0.0883 -12.32,-3e-5 -17.31344,-0.0398 -11.09654,-0.0884 z m -178.56,-0.32 c 6.21691,-0.0486 16.29691,-0.0485 22.4,6e-5 6.1031,0.0486 1.01654,0.0884 -11.30346,0.0883 -12.32,-3e-5 -17.31344,-0.0398 -11.09654,-0.0884 z M 86.751549,746.70327 c 0.214627,-0.21465 23.031011,-0.2358 23.245241,-0.0214 0.0962,0.0962 -5.12917,0.17482 -11.611836,0.17482 -6.482666,0 -11.7177,-0.069 -11.633405,-0.15325 z M 438.38495,726.25569 c 0,-0.0664 0.252,-0.31843 0.56,-0.56 0.50756,-0.39802 0.51885,-0.38672 0.12084,0.12083 -0.41805,0.53303 -0.68084,0.70256 -0.68084,0.43917 z M 61.064134,723.89652 c -0.398038,-0.50755 -0.38672,-0.51885 0.12082,-0.12083 0.53304,0.41805 0.702553,0.68083 0.43918,0.68083 -0.06645,0 -0.318448,-0.252 -0.56,-0.56 z m 228.348786,-1.44 -1.58797,-1.68 1.68,1.58797 c 1.56109,1.47558 1.82676,1.77203 1.58797,1.77203 -0.0506,0 -0.80661,-0.756 -1.68,-1.68 z m -79.18797,-1.36 c 1.13383,-1.144 2.13351,-2.08 2.22151,-2.08 0.088,0 -0.76768,0.936 -1.90151,2.08 -1.13383,1.144 -2.13351,2.08 -2.22151,2.08 -0.088,0 0.76768,-0.936 1.90151,-2.08 z m -78.96,0.89943 c 0.308,-0.0805 0.812,-0.0805 1.12,0 0.308,0.0805 0.056,0.14633 -0.56,0.14633 -0.616,0 -0.868,-0.0659 -0.56,-0.14633 z m 6.4,0 c 0.308,-0.0805 0.812,-0.0805 1.12,0 0.308,0.0805 0.056,0.14633 -0.56,0.14633 -0.616,0 -0.868,-0.0659 -0.56,-0.14633 z m 560.80375,-0.006 c 0.39805,-0.0765 0.97405,-0.0736 1.28,0.006 0.30592,0.0801 -0.0198,0.14272 -0.72375,0.13916 -0.704,-0.004 -0.95433,-0.0691 -0.55625,-0.14563 z m 6.4,0 c 0.39805,-0.0765 0.97405,-0.0736 1.28,0.006 0.30592,0.0801 -0.0198,0.14272 -0.72375,0.13916 -0.704,-0.004 -0.95433,-0.0691 -0.55625,-0.14563 z m 5.45625,-0.31226 c 0.23101,-0.0924 0.50701,-0.0811 0.61335,0.0253 0.10633,0.10634 -0.0827,0.18198 -0.42,0.1681 -0.3728,-0.0154 -0.44861,-0.0912 -0.19335,-0.19335 z m 67.42,-0.74141 c 0.31856,-0.352 0.6512,-0.64 0.7392,-0.64 0.088,0 -0.10064,0.288 -0.4192,0.64 -0.31856,0.352 -0.6512,0.64 -0.7392,0.64 -0.088,0 0.10064,-0.288 0.4192,-0.64 z M 364.7087,720.71019 c 0.39805,-0.0765 0.97405,-0.0736 1.28,0.006 0.30592,0.0801 -0.0198,0.14272 -0.72375,0.13916 -0.704,-0.004 -0.95433,-0.0691 -0.55625,-0.14563 z m 7.67625,0 c 0.396,-0.0763 1.044,-0.0763 1.44,0 0.396,0.0762 0.072,0.13865 -0.72,0.13865 -0.792,0 -1.116,-0.0624 -0.72,-0.13865 z m 6.1,-0.31277 c 0.23101,-0.0924 0.50701,-0.0811 0.61335,0.0253 0.10633,0.10633 -0.0827,0.18198 -0.42,0.16809 -0.3728,-0.0154 -0.44861,-0.0912 -0.19335,-0.19334 z m -194.98,-16.1009 c 0.31856,-0.352 0.6512,-0.64 0.7392,-0.64 0.088,0 -0.10064,0.288 -0.4192,0.64 -0.31855,0.352 -0.65119,0.64 -0.73919,0.64 -0.088,0 0.10064,-0.288 0.41919,-0.64 z m 568.96,-1.6 c 0.68743,-0.704 1.32189,-1.28 1.40989,-1.28 0.088,0 -0.40246,0.576 -1.08989,1.28 -0.68742,0.704 -1.32188,1.28 -1.40988,1.28 -0.088,0 0.40246,-0.576 1.08988,-1.28 z m -565.76,-1.6 c 0.31856,-0.352 0.6512,-0.64 0.7392,-0.64 0.088,0 -0.10064,0.288 -0.4192,0.64 -0.31855,0.352 -0.65119,0.64 -0.73919,0.64 -0.088,0 0.10064,-0.288 0.41919,-0.64 z m -108.040816,-2.16 c -0.398038,-0.50755 -0.38672,-0.51885 0.12082,-0.12083 0.308,0.24157 0.56,0.49357 0.56,0.56 0,0.26339 -0.262781,0.0939 -0.68082,-0.43917 z M 459.8502,684.26987 c 0.0154,-0.3728 0.0912,-0.44861 0.19335,-0.19335 0.0924,0.23101 0.0811,0.50701 -0.0253,0.61335 -0.10634,0.10633 -0.18199,-0.0827 -0.1681,-0.42 z M 267.23548,670.37652 c 0,-0.44 0.0726,-0.62 0.1614,-0.4 0.0888,0.22 0.0888,0.58 0,0.8 -0.0888,0.22 -0.1614,0.04 -0.1614,-0.4 z m 3.08947,-1.17859 c 0.231,-0.0925 0.50701,-0.0811 0.61334,0.0253 0.10633,0.10634 -0.0827,0.18198 -0.42,0.1681 -0.37279,-0.0154 -0.44861,-0.0912 -0.19334,-0.19335 z m 3.84,-0.32 c 0.231,-0.0924 0.50701,-0.0811 0.61334,0.0253 0.10633,0.10634 -0.0827,0.18198 -0.42,0.1681 -0.37279,-0.0154 -0.44861,-0.0912 -0.19334,-0.19335 z m 3.84,-0.32 c 0.231,-0.0925 0.50701,-0.0811 0.61334,0.0253 0.10633,0.10634 -0.0827,0.18198 -0.42,0.1681 -0.37279,-0.0154 -0.44861,-0.0912 -0.19334,-0.19335 z m 18.88,-1.6 c 0.231,-0.0924 0.50701,-0.0811 0.61334,0.0253 0.10633,0.10634 -0.0827,0.18198 -0.42,0.1681 -0.37279,-0.0154 -0.44861,-0.0912 -0.19334,-0.19335 z M 57.290218,639.46987 c 0.01536,-0.3728 0.09118,-0.44861 0.193331,-0.19335 0.09244,0.23101 0.08107,0.50701 -0.02525,0.61335 -0.106336,0.10633 -0.181965,-0.0827 -0.168071,-0.42 z m 567.077102,-4.13335 c 0.006,-0.528 0.0782,-0.70525 0.15939,-0.39392 0.0811,0.31136 0.0758,0.74336 -0.0118,0.96 -0.0876,0.21667 -0.15401,-0.0381 -0.14752,-0.56608 z m -33.28,-0.64 c 0.006,-0.528 0.0782,-0.70525 0.15939,-0.39392 0.0811,0.31136 0.0758,0.74336 -0.0118,0.96 -0.0876,0.21667 -0.15401,-0.0381 -0.14752,-0.56608 z m -534.079982,-0.64 c 0.0065,-0.528 0.07824,-0.70525 0.159372,-0.39392 0.08113,0.31136 0.0758,0.74336 -0.01187,0.96 -0.08766,0.21667 -0.154038,-0.0381 -0.147516,-0.56608 z m -0.01187,-14.88 c 0,-0.44 0.07263,-0.62 0.161404,-0.4 0.08877,0.22 0.08877,0.58 0,0.8 -0.08877,0.22 -0.161404,0.04 -0.161404,-0.4 z m 567.360002,-1.28 c 0,-0.44 0.0726,-0.62 0.16141,-0.4 0.0888,0.22 0.0888,0.58 0,0.8 -0.0888,0.22 -0.16141,0.04 -0.16141,-0.4 z m -33.26816,-0.48 c 0.006,-0.528 0.0782,-0.70525 0.15939,-0.39392 0.0811,0.31136 0.0758,0.74336 -0.0118,0.96 -0.0877,0.21667 -0.15402,-0.0381 -0.14752,-0.56608 z m 0.28288,-5.14665 c 0.0154,-0.3728 0.0912,-0.44861 0.19334,-0.19335 0.0924,0.23101 0.0811,0.50701 -0.0253,0.61335 -0.10633,0.10633 -0.18198,-0.0827 -0.16809,-0.42 z m -299.56246,-3.25335 -1.10278,-1.2 1.2,1.10279 c 0.66,0.60652 1.2,1.14652 1.2,1.2 0,0.24435 -0.27079,0.0141 -1.29722,-1.10279 z m 133.39722,-30.05859 c 0.23101,-0.0924 0.50701,-0.0811 0.61335,0.0253 0.10633,0.10634 -0.0827,0.18198 -0.42,0.1681 -0.3728,-0.0154 -0.44861,-0.0912 -0.19335,-0.19335 z m 4.48,-0.32 c 0.23101,-0.0924 0.50701,-0.0811 0.61335,0.0253 0.10633,0.10634 -0.0827,0.18198 -0.42,0.1681 -0.3728,-0.0154 -0.44861,-0.0912 -0.19335,-0.19335 z m 4.16,-0.32 c 0.23101,-0.0925 0.50701,-0.0811 0.61335,0.0253 0.10633,0.10634 -0.0827,0.18198 -0.42,0.1681 -0.3728,-0.0154 -0.44861,-0.0912 -0.19335,-0.19335 z m 4.48,-0.32 c 0.23101,-0.0924 0.50701,-0.0811 0.61335,0.0253 0.10633,0.10634 -0.0827,0.18198 -0.42,0.1681 -0.3728,-0.0154 -0.44861,-0.0912 -0.19335,-0.19335 z m 4.48,-0.32 c 0.23101,-0.0924 0.50701,-0.0811 0.61335,0.0253 0.10633,0.10634 -0.0827,0.18198 -0.42,0.1681 -0.3728,-0.0154 -0.44861,-0.0912 -0.19335,-0.19335 z m 4.48,-0.32 c 0.23101,-0.0924 0.50701,-0.0811 0.61335,0.0253 0.10633,0.10634 -0.0827,0.18198 -0.42,0.1681 -0.3728,-0.0154 -0.44861,-0.0912 -0.19335,-0.19335 z m 4.16,-0.32 c 0.23101,-0.0924 0.50701,-0.0811 0.61335,0.0253 0.10633,0.10634 -0.0827,0.18198 -0.42,0.1681 -0.3728,-0.0154 -0.44861,-0.0912 -0.19335,-0.19335 z m 1.39053,-0.74141 c 0,-0.44 0.0726,-0.62 0.16141,-0.4 0.0888,0.22 0.0888,0.58 0,0.8 -0.0888,0.22 -0.16141,0.04 -0.16141,-0.4 z m -176.25214,-4.8 c 0,-1.848 0.0529,-2.604 0.11753,-1.68 0.0646,0.924 0.0646,2.436 0,3.36 -0.0646,0.924 -0.11753,0.168 -0.11753,-1.68 z m 30.984,-2.08 c 0.007,-0.528 0.0782,-0.70525 0.15937,-0.39392 0.0811,0.31136 0.0758,0.74336 -0.0119,0.96 -0.0877,0.21667 -0.15404,-0.0381 -0.14752,-0.56608 z M 78.064954,557.61569 c 0,-0.0664 0.252,-0.31843 0.56,-0.56 0.507539,-0.39802 0.518857,-0.38672 0.120819,0.12083 -0.418039,0.53303 -0.680819,0.70256 -0.680819,0.43917 z m 331.799166,-7.47917 c -0.39801,-0.50755 -0.38672,-0.51885 0.12083,-0.12083 0.308,0.24157 0.56,0.49357 0.56,0.56 0,0.26339 -0.26278,0.0939 -0.68083,-0.43917 z m -2.56,-2.56 c -0.39801,-0.50755 -0.38672,-0.51885 0.12083,-0.12083 0.53303,0.41805 0.70256,0.68083 0.43917,0.68083 -0.0664,0 -0.31843,-0.252 -0.56,-0.56 z m -89.55917,-0.20083 c 0,-0.0664 0.252,-0.31843 0.56,-0.56 0.50754,-0.39802 0.51886,-0.38672 0.12082,0.12083 -0.41804,0.53303 -0.68082,0.70256 -0.68082,0.43917 z m -264.959996,-6.08 c 0,-0.0664 0.252,-0.31843 0.56,-0.56 0.507539,-0.39802 0.518857,-0.38672 0.120819,0.12083 -0.418039,0.53303 -0.680819,0.70256 -0.680819,0.43917 z m 726.359166,-5.23917 c -0.39801,-0.50755 -0.38672,-0.51885 0.12083,-0.12083 0.53303,0.41805 0.70256,0.68083 0.43917,0.68083 -0.0664,0 -0.31843,-0.252 -0.56,-0.56 z m -721.239166,0.11917 c 0,-0.0664 0.252,-0.31843 0.56,-0.56 0.507539,-0.39802 0.518857,-0.38672 0.120819,0.12083 -0.418039,0.53303 -0.680819,0.70256 -0.680819,0.43917 z m 567.999996,-0.64 c 0,-0.0664 0.252,-0.31843 0.56,-0.56 0.50756,-0.39802 0.51885,-0.38672 0.12084,0.12083 -0.41805,0.53303 -0.68084,0.70256 -0.68084,0.43917 z m -273.66,-0.73776 c 0.23101,-0.0924 0.50701,-0.0811 0.61335,0.0253 0.10633,0.10634 -0.0827,0.18198 -0.42,0.1681 -0.3728,-0.0154 -0.44861,-0.0912 -0.19335,-0.19335 z m 5.74375,-0.32774 c 0.39805,-0.0765 0.97405,-0.0736 1.28,0.006 0.30592,0.0801 -0.0198,0.14272 -0.72375,0.13916 -0.704,-0.004 -0.95433,-0.0691 -0.55625,-0.14563 z m 8.96,0 c 0.39805,-0.0765 0.97405,-0.0736 1.28,0.006 0.30592,0.0801 -0.0198,0.14272 -0.72375,0.13916 -0.704,-0.004 -0.95433,-0.0691 -0.55625,-0.14563 z m -237.10375,-0.63226 c 0.231,-0.0924 0.50701,-0.0811 0.61334,0.0253 0.10633,0.10634 -0.0827,0.18198 -0.42,0.1681 -0.37279,-0.0154 -0.44861,-0.0912 -0.19334,-0.19335 z m 13.76,0 c 0.231,-0.0924 0.50701,-0.0811 0.61334,0.0253 0.10633,0.10634 -0.0827,0.18198 -0.42,0.1681 -0.37279,-0.0154 -0.44861,-0.0912 -0.19334,-0.19335 z m 553.6,0 c 0.23101,-0.0924 0.50701,-0.0811 0.61335,0.0253 0.10633,0.10634 -0.0827,0.18198 -0.42,0.1681 -0.3728,-0.0154 -0.44861,-0.0912 -0.19335,-0.19335 z m 13.76,0 c 0.23101,-0.0924 0.50701,-0.0811 0.61335,0.0253 0.10633,0.10634 -0.0827,0.18198 -0.42,0.1681 -0.3728,-0.0154 -0.44861,-0.0912 -0.19335,-0.19335 z m 64.01917,-1.94141 c -0.39801,-0.50755 -0.38672,-0.51885 0.12083,-0.12083 0.53303,0.41805 0.70256,0.68083 0.43917,0.68083 -0.0664,0 -0.31843,-0.252 -0.56,-0.56 z m -479.31917,-3.72083 c 0,-0.0664 0.252,-0.31843 0.56,-0.56 0.50754,-0.39802 0.51886,-0.38672 0.12082,0.12083 -0.41804,0.53303 -0.68082,0.70256 -0.68082,0.43917 z m -168.06,-20.89776 c 0.231,-0.0925 0.50701,-0.0811 0.61334,0.0253 0.10633,0.10634 -0.0827,0.18198 -0.42,0.1681 -0.37279,-0.0154 -0.44861,-0.0912 -0.19334,-0.19335 z m 20.48,0 c 0.231,-0.0925 0.50701,-0.0811 0.61334,0.0253 0.10633,0.10634 -0.0827,0.18198 -0.42,0.1681 -0.37279,-0.0154 -0.44861,-0.0912 -0.19334,-0.19335 z m 203.2,0 c 0.23101,-0.0925 0.50701,-0.0811 0.61335,0.0253 0.10633,0.10634 -0.0827,0.18198 -0.42,0.1681 -0.3728,-0.0154 -0.44861,-0.0912 -0.19335,-0.19335 z m 21.44,0 c 0.23101,-0.0925 0.50701,-0.0811 0.61335,0.0253 0.10633,0.10634 -0.0827,0.18198 -0.42,0.1681 -0.3728,-0.0154 -0.44861,-0.0912 -0.19335,-0.19335 z m 342.72,0 c 0.23101,-0.0925 0.50701,-0.0811 0.61335,0.0253 0.10633,0.10634 -0.0827,0.18198 -0.42,0.1681 -0.3728,-0.0154 -0.44861,-0.0912 -0.19335,-0.19335 z m -581.62,-0.33062 c 0.484,-0.0733 1.276,-0.0733 1.76,0 0.484,0.0733 0.088,0.13331 -0.88,0.13331 -0.968,0 -1.364,-0.06 -0.88,-0.13331 z m 6.72,0 c 0.484,-0.0733 1.276,-0.0733 1.76,0 0.484,0.0733 0.088,0.13331 -0.88,0.13331 -0.968,0 -1.364,-0.06 -0.88,-0.13331 z m 216.96,0 c 0.484,-0.0733 1.276,-0.0733 1.76,0 0.484,0.0733 0.088,0.13331 -0.88,0.13331 -0.968,0 -1.364,-0.06 -0.88,-0.13331 z m 7.20573,-0.003 c 0.57517,-0.0712 1.43917,-0.0698 1.92,0.003 0.48087,0.073 0.0102,0.13126 -1.04573,0.12947 -1.056,-0.003 -1.4494,-0.0615 -0.87427,-0.13274 z m 336.15427,0.003 c 0.484,-0.0733 1.276,-0.0733 1.76,0 0.484,0.0733 0.088,0.13331 -0.88,0.13331 -0.968,0 -1.364,-0.06 -0.88,-0.13331 z m 7.04,0 c 0.484,-0.0733 1.276,-0.0733 1.76,0 0.484,0.0733 0.088,0.13331 -0.88,0.13331 -0.968,0 -1.364,-0.06 -0.88,-0.13331 z M 31.183165,386.85652 c 0,-62.04 0.0368,-87.42 0.08178,-56.4 0.04498,31.02 0.04498,81.78 0,112.8 -0.04498,31.02 -0.08178,5.64 -0.08178,-56.4 z m 50.718966,107.92394 5.757712,-0.0984 0.08639,-18.63277 0.08639,-18.6328 -0.0038,18.72 -0.0038,18.72 -5.840265,0.0112 -5.840266,0.0112 5.757709,-0.0983 z m 60.099839,-0.003 c 1.81337,-0.0571 4.69337,-0.0569 6.4,0 1.70664,0.0574 0.22298,0.10419 -3.29702,0.1039 -3.52,-2.9e-4 -4.91634,-0.0473 -3.10298,-0.10441 z m 68.00038,-1e-4 c 1.90156,-0.0567 4.92556,-0.0564 6.72,0 1.79443,0.0569 0.2386,0.1033 -3.4574,0.10304 -3.696,-2.5e-4 -5.16417,-0.0469 -3.2626,-0.10352 z m 28.69988,0.003 5.75781,-0.0984 0.0862,-19.59276 0.0862,-19.5928 -0.004,19.68 -0.004,19.68 -5.84027,0.0112 -5.84026,0.0112 5.7578,-0.0983 z m 59.62078,-0.003 c 2.07793,-0.0558 5.38993,-0.0556 7.36,0 1.97007,0.0561 0.26994,0.10173 -3.77806,0.10151 -4.048,-2.3e-4 -5.65987,-0.0461 -3.58194,-0.10192 z m 118.76966,-0.16086 c -0.0838,-0.22 -0.11469,-20.2 -0.0688,-44.4 l 0.0834,-44 0.0789,44.23277 0.0788,44.2328 5.84,0.0949 5.84,0.0949 -5.85004,0.0723 c -4.43991,0.0549 -5.88672,-0.024 -6.00224,-0.32768 z m 59.11609,0.16198 c 1.53111,-0.0585 4.12311,-0.0588 5.76,0 1.6369,0.0582 0.38419,0.10608 -2.78381,0.1064 -3.168,0 -4.50729,-0.0473 -2.97619,-0.10579 z m 40.25479,0.003 5.75916,-0.0984 0.0828,-44.23276 0.0828,-44.2328 -0.003,44.32 -0.003,44.32 -5.84026,0.0112 -5.84029,0.0112 5.75914,-0.0983 z m 58.33801,-0.003 c 1.72515,-0.0577 4.46115,-0.0574 6.08,0 1.61888,0.058 0.20739,0.10512 -3.13661,0.10483 -3.344,-3.2e-4 -4.66851,-0.0477 -2.94339,-0.10537 z m 182.24339,-9.25984 c 0.23101,-0.0924 0.50701,-0.0811 0.61335,0.0253 0.10633,0.10634 -0.0827,0.18199 -0.42,0.1681 -0.3728,-0.0154 -0.44861,-0.0912 -0.19335,-0.19335 z m 4.78,0.007 c 0.22,-0.0888 0.58,-0.0888 0.8,0 0.22,0.0888 0.04,0.16141 -0.4,0.16141 -0.44,0 -0.62,-0.0726 -0.4,-0.16141 z M 285.5699,459.737 l -1.26495,-1.36 1.36,1.26493 c 0.748,0.69574 1.36,1.30774 1.36,1.36 0,0.24211 -0.27867,-1.3e-4 -1.45505,-1.26493 z m 354.4403,-3.30665 c 0.0154,-0.3728 0.0912,-0.44861 0.19335,-0.19335 0.0924,0.23101 0.0811,0.50701 -0.0253,0.61335 -0.10634,0.10633 -0.18199,-0.0827 -0.1681,-0.42 z M 627.87548,455.017 c 0,-0.44 0.0726,-0.62 0.16141,-0.4 0.0888,0.22 0.0888,0.58 0,0.8 -0.0888,0.22 -0.16141,0.04 -0.16141,-0.4 z m 82.53472,-0.18665 c 0.0154,-0.3728 0.0912,-0.44861 0.19335,-0.19335 0.0924,0.23101 0.0811,0.50701 -0.0253,0.61335 -0.10634,0.10633 -0.18199,-0.0827 -0.1681,-0.42 z M 333.47548,453.737 c 0,-0.44 0.0726,-0.62 0.16141,-0.4 0.0888,0.22 0.0888,0.58 0,0.8 -0.0888,0.22 -0.16141,0.04 -0.16141,-0.4 z m 106.45293,-0.5599 c 6.2169,-0.0486 16.2969,-0.0486 22.4,6e-5 6.1031,0.0486 1.01654,0.0884 -11.30346,0.0884 -12.32,-3e-5 -17.31344,-0.0398 -11.09654,-0.0884 z M 321.38335,449.897 c 0,-1.848 0.0529,-2.604 0.11751,-1.68 0.0646,0.924 0.0646,2.436 0,3.36 -0.0646,0.924 -0.11751,0.168 -0.11751,-1.68 z m 306.49213,-2.24 c 0,-0.44 0.0726,-0.62 0.16141,-0.4 0.0888,0.22 0.0888,0.58 0,0.8 -0.0888,0.22 -0.16141,0.04 -0.16141,-0.4 z m -333.17053,0.21987 c 0,-0.0551 0.468,-0.52307 1.04,-1.04 l 1.04,-0.93987 -0.93987,1.04 c -0.87608,0.96944 -1.14013,1.18711 -1.14013,0.93987 z m 38.77053,-1.49987 c 0,-0.44 0.0726,-0.62 0.16141,-0.4 0.0888,0.22 0.0888,0.58 0,0.8 -0.0888,0.22 -0.16141,0.04 -0.16141,-0.4 z m 306.53472,0.13335 c 0.0154,-0.3728 0.0912,-0.44861 0.19335,-0.19335 0.0924,0.23101 0.0811,0.50701 -0.0253,0.61335 -0.10634,0.10633 -0.18199,-0.0827 -0.1681,-0.42 z m 70.4,0 c 0.0154,-0.3728 0.0912,-0.44861 0.19335,-0.19335 0.0924,0.23101 0.0811,0.50701 -0.0253,0.61335 -0.10634,0.10633 -0.18199,-0.0827 -0.1681,-0.42 z m -12.16,-0.96 c 0.0154,-0.3728 0.0912,-0.44861 0.19335,-0.19335 0.0924,0.23101 0.0811,0.50701 -0.0253,0.61335 -0.10634,0.10633 -0.18199,-0.0827 -0.1681,-0.42 z M 244.61145,445.017 c -0.0844,-0.22 -0.11432,-6.808 -0.0665,-14.64 l 0.0869,-14.24 0.0766,14.47648 0.0766,14.47651 13.36,0.0871 13.36,0.0871 -13.37004,0.0764 c -10.45777,0.0597 -13.40346,-0.0109 -13.52346,-0.32362 z m 535.7935,-12.93859 c 0.23101,-0.0924 0.50701,-0.0811 0.61335,0.0253 0.10633,0.10634 -0.0827,0.18198 -0.42,0.1681 -0.3728,-0.0154 -0.44861,-0.0912 -0.19335,-0.19335 z m 8,-0.64 c 0.23101,-0.0924 0.50701,-0.0811 0.61335,0.0253 0.10633,0.10634 -0.0827,0.18198 -0.42,0.1681 -0.3728,-0.0154 -0.44861,-0.0912 -0.19335,-0.19335 z M 302.12734,430.537 c 0.007,-0.528 0.0782,-0.70525 0.15937,-0.39392 0.0811,0.31136 0.0758,0.74336 -0.0119,0.96 -0.0877,0.21667 -0.15404,-0.0381 -0.14752,-0.56608 z m -12.19712,-1.30665 c 0.0154,-0.3728 0.0912,-0.44861 0.19333,-0.19335 0.0924,0.23101 0.0811,0.50701 -0.0253,0.61335 -0.10633,0.10633 -0.18196,-0.0827 -0.16807,-0.42 z m 398.99752,-6.13335 -1.10279,-1.2 1.2,1.10279 c 0.66,0.60652 1.2,1.14652 1.2,1.2 0,0.24435 -0.27078,0.0141 -1.29721,-1.10279 z m -347.82279,0.75917 c 0,-0.0664 0.252,-0.31843 0.56,-0.56 0.50756,-0.39802 0.51885,-0.38672 0.12084,0.12083 -0.41805,0.53303 -0.68084,0.70256 -0.68084,0.43917 z m -67.28,-7.4511 c 0.22,-0.0888 0.58,-0.0888 0.8,0 0.22,0.0888 0.04,0.1614 -0.4,0.1614 -0.44,0 -0.62,-0.0726 -0.4,-0.1614 z m 480.64,-0.96 c 0.22,-0.0888 0.58,-0.0888 0.8,0 0.22,0.0888 0.04,0.1614 -0.4,0.1614 -0.44,0 -0.62,-0.0726 -0.4,-0.1614 z m 5.12,0 c 0.22,-0.0888 0.58,-0.0888 0.8,0 0.22,0.0888 0.04,0.1614 -0.4,0.1614 -0.44,0 -0.62,-0.0726 -0.4,-0.1614 z m -400.32,-0.32 c 0.22,-0.0888 0.58,-0.0888 0.8,0 0.22,0.0888 0.04,0.1614 -0.4,0.1614 -0.44,0 -0.62,-0.0726 -0.4,-0.1614 z m 4.5,-0.007 c 0.23101,-0.0924 0.50701,-0.0811 0.61335,0.0253 0.10633,0.10633 -0.0827,0.18198 -0.42,0.16809 -0.3728,-0.0154 -0.44861,-0.0912 -0.19335,-0.19334 z m 304.78439,-0.0109 c 0.48643,-0.0735 1.20643,-0.0716 1.6,0.004 0.3936,0.0759 -0.004,0.13612 -0.88439,0.13372 -0.88,-0.003 -1.20201,-0.0645 -0.71561,-0.13811 z m -390.86439,-8.62906 c 0.231,-0.0925 0.50701,-0.0811 0.61334,0.0253 0.10633,0.10634 -0.0827,0.18198 -0.42,0.1681 -0.37279,-0.0154 -0.44861,-0.0912 -0.19334,-0.19335 z m 387.52,-1.6 c 0.23101,-0.0924 0.50701,-0.0811 0.61335,0.0253 0.10633,0.10634 -0.0827,0.18198 -0.42,0.1681 -0.3728,-0.0154 -0.44861,-0.0912 -0.19335,-0.19335 z m 7.68,0 c 0.23101,-0.0924 0.50701,-0.0811 0.61335,0.0253 0.10633,0.10634 -0.0827,0.18198 -0.42,0.1681 -0.3728,-0.0154 -0.44861,-0.0912 -0.19335,-0.19335 z m 82.24,-28.16 c 0.23101,-0.0925 0.50701,-0.0811 0.61335,0.0253 0.10633,0.10634 -0.0827,0.18198 -0.42,0.1681 -0.3728,-0.0154 -0.44861,-0.0912 -0.19335,-0.19335 z m -706.877555,-1.3014 c 4.632346,-0.05 12.120346,-0.05 16.64,10e-5 4.519658,0.05 0.729559,0.0909 -8.422441,0.0909 -9.152,-6e-5 -12.849901,-0.041 -8.217559,-0.091 z m 73.097555,0 c 1.54,-0.0587 4.06,-0.0587 5.6,0 1.54,0.0587 0.28,0.10666 -2.8,0.10666 -3.08,0 -4.34,-0.048 -2.8,-0.10666 z m 29.5077,-0.16172 c -0.0837,-0.22 -0.11468,-20.2 -0.0688,-44.4 l 0.0834,-44 0.0789,44.23712 0.0788,44.23712 16.56,0.0858 16.56,0.0858 -16.57004,0.0771 c -13.01868,0.0605 -16.60267,-0.009 -16.72226,-0.32294 z m 89.3723,0.16009 c 6.908,-0.0481 18.212,-0.0481 25.12,0 6.908,0.0482 1.256,0.0876 -12.56,0.0876 -13.816,0 -19.468,-0.0394 -12.56,-0.0876 z m 57.44,0.003 c 1.54,-0.0587 4.06,-0.0587 5.6,0 1.54,0.0587 0.28,0.10666 -2.8,0.10666 -3.08,0 -4.34,-0.048 -2.8,-0.10666 z m 144.96,0 c 1.54,-0.0587 4.06,-0.0587 5.6,0 1.54,0.0587 0.28,0.10666 -2.8,0.10666 -3.08,0 -4.34,-0.048 -2.8,-0.10666 z m 65.14423,-0.003 c 8.32934,-0.0475 21.86534,-0.0475 30.08,3e-5 8.21469,0.0475 1.39977,0.0864 -15.14423,0.0864 -16.544,-3e-5 -23.26508,-0.0389 -14.93577,-0.0864 z m 139.63958,0.003 c 1.53111,-0.0585 4.12311,-0.0588 5.76,0 1.6369,0.0582 0.38419,0.10608 -2.78381,0.1064 -3.168,0 -4.50729,-0.0473 -2.97619,-0.10579 z m 63.37619,0 c 1.716,-0.0575 4.524,-0.0575 6.24,0 1.716,0.0575 0.312,0.10461 -3.12,0.10461 -3.432,0 -4.836,-0.0471 -3.12,-0.10461 z m -84.08,-7.44176 c 0.31856,-0.352 0.6512,-0.64 0.7392,-0.64 0.088,0 -0.10064,0.288 -0.4192,0.64 -0.31856,0.352 -0.6512,0.64 -0.7392,0.64 -0.088,0 0.10064,-0.288 0.4192,-0.64 z m -237.92,-1.44 c 0.41335,-0.44 0.82356,-0.8 0.91156,-0.8 0.088,0 -0.17821,0.36 -0.59156,0.8 -0.41334,0.44 -0.82355,0.8 -0.91155,0.8 -0.088,0 0.17821,-0.36 0.59155,-0.8 z m 368.9,-0.37859 c 0.23101,-0.0925 0.50701,-0.0811 0.61335,0.0253 0.10633,0.10634 -0.0827,0.18198 -0.42,0.1681 -0.3728,-0.0154 -0.44861,-0.0912 -0.19335,-0.19335 z m 4.8,0 c 0.23101,-0.0925 0.50701,-0.0811 0.61335,0.0253 0.10633,0.10634 -0.0827,0.18198 -0.42,0.1681 -0.3728,-0.0154 -0.44861,-0.0912 -0.19335,-0.19335 z M 50.692803,349.73652 c 0,-8.36 0.04134,-11.78 0.09187,-7.6 0.05053,4.18 0.05053,11.02 0,15.2 -0.05053,4.18 -0.09187,0.76 -0.09187,-7.6 z m 24.752151,14.82141 c 0.230998,-0.0924 0.506998,-0.0811 0.613334,0.0253 0.106333,0.10634 -0.08267,0.18198 -0.42,0.1681 -0.372784,-0.0154 -0.448608,-0.0912 -0.193334,-0.19335 z M 238.53992,325.89652 c 1e-5,-21.472 0.0383,-30.20885 0.085,-19.41522 0.0467,10.79362 0.0467,28.36162 -2e-5,39.03999 -0.0468,10.67837 -0.085,1.84723 -0.085,-19.62477 z m -42.71497,35.23917 c 0,-0.0664 0.252,-0.31843 0.56,-0.56 0.50754,-0.39802 0.51886,-0.38672 0.12082,0.12083 -0.41804,0.53303 -0.68082,0.70256 -0.68082,0.43917 z m 422.72,-0.67917 c 0.41335,-0.44 0.82356,-0.8 0.91156,-0.8 0.088,0 -0.17821,0.36 -0.59156,0.8 -0.41334,0.44 -0.82355,0.8 -0.91155,0.8 -0.088,0 0.17821,-0.36 0.59155,-0.8 z m 123.81578,-0.72 -0.77578,-0.88 0.88,0.77578 c 0.8225,0.72509 1.02676,0.98422 0.77578,0.98422 -0.0573,0 -0.45331,-0.396 -0.88,-0.88 z m -362.53578,0.45987 c 0,-0.0551 0.468,-0.52307 1.04,-1.04 l 1.04,-0.93987 -0.93987,1.04 c -0.87609,0.96944 -1.14013,1.18711 -1.14013,0.93987 z M 211.60996,349.89652 c 0.001,-1.232 0.0593,-1.6968 0.12853,-1.03286 0.0693,0.66393 0.0681,1.67193 -0.003,2.24 -0.0707,0.56806 -0.12737,0.025 -0.12595,-1.20714 z m 578.80024,-1.94665 c 0.0154,-0.3728 0.0912,-0.44861 0.19335,-0.19335 0.0924,0.23101 0.0811,0.50701 -0.0253,0.61335 -0.10634,0.10633 -0.18199,-0.0827 -0.1681,-0.42 z m -454.72,-11.52 c 0.0154,-0.3728 0.0912,-0.44861 0.19335,-0.19335 0.0924,0.23101 0.0811,0.50701 -0.0253,0.61335 -0.10634,0.10633 -0.18199,-0.0827 -0.1681,-0.42 z m 230.42528,-1.09335 c 0,-0.44 0.0726,-0.62 0.16141,-0.4 0.0888,0.22 0.0888,0.58 0,0.8 -0.0888,0.22 -0.16141,0.04 -0.16141,-0.4 z M 71.751043,334.79476 c 0.311351,-0.0811 0.743351,-0.0758 0.96,0.0118 0.21665,0.0876 -0.03809,0.15402 -0.566089,0.14752 -0.528,-0.006 -0.705261,-0.0782 -0.393911,-0.15939 z m 111.039997,0 c 0.31135,-0.0811 0.74335,-0.0758 0.96,0.0118 0.21665,0.0876 -0.0381,0.15402 -0.56609,0.14752 -0.528,-0.006 -0.70526,-0.0782 -0.39391,-0.15939 z m 365.10518,-4.97606 -0.0713,-5.35779 -22.16,-0.0844 -22.16,-0.0844 22.17005,-0.0778 c 17.86467,-0.0626 22.2008,0.003 22.32845,0.33507 0.0871,0.22708 0.11469,2.71108 0.0612,5.52 l -0.0972,5.10717 z m -453.232086,4.31782 c -0.398038,-0.50755 -0.38672,-0.51885 0.12082,-0.12083 0.53304,0.41805 0.702553,0.68083 0.43918,0.68083 -0.06645,0 -0.318448,-0.252 -0.56,-0.56 z m 306.720536,-2.8 c 0,-1.936 0.0534,-2.68675 0.11712,-1.66832 0.0637,1.01843 0.0631,2.60243 0,3.52 -0.0644,0.91757 -0.11655,0.0843 -0.11581,-1.85168 z m 175.94265,2.56 c 0.006,-0.528 0.0782,-0.70525 0.15939,-0.39392 0.0811,0.31136 0.0758,0.74336 -0.0118,0.96 -0.0876,0.21667 -0.15401,-0.0381 -0.14752,-0.56608 z M 390.0902,331.30987 c 0.0154,-0.3728 0.0912,-0.44861 0.19335,-0.19335 0.0924,0.23101 0.0811,0.50701 -0.0253,0.61335 -0.10634,0.10633 -0.18199,-0.0827 -0.1681,-0.42 z m -54.37472,-3.33335 c 0,-0.44 0.0726,-0.62 0.16141,-0.4 0.0888,0.22 0.0888,0.58 0,0.8 -0.0888,0.22 -0.16141,0.04 -0.16141,-0.4 z m 241.61184,-0.48 c 0.006,-0.528 0.0782,-0.70525 0.15939,-0.39392 0.0811,0.31136 0.0758,0.74336 -0.0118,0.96 -0.0876,0.21667 -0.15401,-0.0381 -0.14752,-0.56608 z M 324.4902,326.50987 c 0.0154,-0.3728 0.0912,-0.44861 0.19335,-0.19335 0.0924,0.23101 0.0811,0.50701 -0.0253,0.61335 -0.10634,0.10633 -0.18199,-0.0827 -0.1681,-0.42 z m 241.62528,-0.77335 c 0,-0.44 0.0726,-0.62 0.16141,-0.4 0.0888,0.22 0.0888,0.58 0,0.8 -0.0888,0.22 -0.16141,0.04 -0.16141,-0.4 z m -475.730526,-0.96 c 0.318556,-0.352 0.651193,-0.64 0.739193,-0.64 0.088,0 -0.100637,0.288 -0.419193,0.64 -0.318557,0.352 -0.651194,0.64 -0.739194,0.64 -0.088,0 0.100637,-0.288 0.419194,-0.64 z m -39.693572,-13.92 c 8e-5,-7.392 0.04206,-10.3703 0.09329,-6.61845 0.05123,3.75184 0.05116,9.79984 -1.44e-4,13.44 -0.05131,3.64015 -0.09322,0.57045 -0.09314,-6.82155 z m 20.253572,13.06807 c 0.22,-0.0888 0.58,-0.0888 0.8,0 0.22,0.0888 0.04,0.1614 -0.4,0.1614 -0.44,0 -0.62,-0.0726 -0.4,-0.1614 z m 111.206086,-0.01 c 0.31135,-0.0811 0.74335,-0.0758 0.96,0.0118 0.21665,0.0876 -0.0381,0.15401 -0.56609,0.14752 -0.528,-0.006 -0.70526,-0.0782 -0.39391,-0.1594 z m 14.7298,-12.89815 c 0,-0.968 0.06,-1.364 0.13331,-0.88 0.0733,0.484 0.0733,1.276 0,1.76 -0.0733,0.484 -0.13331,0.088 -0.13331,-0.88 z m 389.34411,-8.48 c 0.59706,-0.616 1.15754,-1.12 1.24554,-1.12 0.088,0 -0.32848,0.504 -0.92554,1.12 -0.59705,0.616 -1.15753,1.12 -1.24553,1.12 -0.088,0 0.32848,-0.504 0.92553,-1.12 z m 31.97578,-1.36 -0.77578,-0.88 0.88,0.77578 c 0.8225,0.72509 1.02676,0.98422 0.77578,0.98422 -0.0573,0 -0.45331,-0.396 -0.88,-0.88 z m 125.46422,-0.56 c 0.41335,-0.44 0.82356,-0.8 0.91156,-0.8 0.088,0 -0.17821,0.36 -0.59156,0.8 -0.41334,0.44 -0.82355,0.8 -0.91155,0.8 -0.088,0 0.17821,-0.36 0.59155,-0.8 z m 28.9296,0.08 -0.6096,-0.72 0.72,0.6096 c 0.67661,0.57287 0.86567,0.8304 0.6096,0.8304 -0.0607,0 -0.38473,-0.324 -0.72,-0.72 z M 69.831043,297.67477 c 0.311351,-0.0811 0.743351,-0.0758 0.96,0.0119 0.21665,0.0877 -0.03809,0.15404 -0.566089,0.14751 -0.528,-0.007 -0.705261,-0.0782 -0.393911,-0.15937 z m 111.033907,10e-4 c 0.308,-0.0805 0.812,-0.0805 1.12,0 0.308,0.0805 0.056,0.14634 -0.56,0.14634 -0.616,0 -0.868,-0.0659 -0.56,-0.14634 z m 232.69095,-5.37953 c 0,-2.992 0.0477,-4.25907 0.10688,-2.81571 0.0592,1.44336 0.0595,3.89136 0,5.44 -0.0588,1.54864 -0.1072,0.36771 -0.10755,-2.62429 z m -76.61095,3.52 c 0.59706,-0.616 1.15754,-1.12 1.24554,-1.12 0.088,0 -0.32848,0.504 -0.92554,1.12 -0.59705,0.616 -1.15753,1.12 -1.24553,1.12 -0.088,0 0.32848,-0.504 0.92553,-1.12 z m 418.82,0.26141 c 0.23101,-0.0924 0.50701,-0.0811 0.61335,0.0253 0.10633,0.10633 -0.0827,0.18196 -0.42,0.16807 -0.3728,-0.0154 -0.44861,-0.0912 -0.19335,-0.19334 z m 4.8,0 c 0.23101,-0.0924 0.50701,-0.0811 0.61335,0.0253 0.10633,0.10633 -0.0827,0.18196 -0.42,0.16807 -0.3728,-0.0154 -0.44861,-0.0912 -0.19335,-0.19334 z M 362.30934,295.7469 c 0.48643,-0.0736 1.20643,-0.0716 1.6,0.004 0.3936,0.0759 -0.004,0.13613 -0.88439,0.13373 -0.88,-0.003 -1.20201,-0.0645 -0.71561,-0.1381 z m 239.21561,0.011 c 0.23101,-0.0924 0.50701,-0.0811 0.61335,0.0252 0.10633,0.10633 -0.0827,0.18196 -0.42,0.16807 -0.3728,-0.0154 -0.44861,-0.0912 -0.19335,-0.19334 z m 4.16,0 c 0.23101,-0.0924 0.50701,-0.0811 0.61335,0.0252 0.10633,0.10633 -0.0827,0.18196 -0.42,0.16807 -0.3728,-0.0154 -0.44861,-0.0912 -0.19335,-0.19334 z m 20.84279,-1.62141 -1.10279,-1.2 1.2,1.10278 c 0.66,0.60652 1.2,1.14652 1.2,1.2 0,0.24436 -0.27078,0.0141 -1.29721,-1.10278 z m 154.07709,-0.8 -0.93988,-1.04 1.04,0.93987 c 0.96944,0.87609 1.18711,1.14013 0.93988,1.14013 -0.0551,0 -0.52308,-0.468 -1.04,-1.04 z m -414.27988,-7.8186 c 0.23101,-0.0924 0.50701,-0.0811 0.61335,0.0253 0.10633,0.10633 -0.0827,0.18196 -0.42,0.16807 -0.3728,-0.0154 -0.44861,-0.0912 -0.19335,-0.19334 z m 387.84,0 c 0.23101,-0.0924 0.50701,-0.0811 0.61335,0.0253 0.10633,0.10633 -0.0827,0.18196 -0.42,0.16807 -0.3728,-0.0154 -0.44861,-0.0912 -0.19335,-0.19334 z m 7.36,0 c 0.23101,-0.0924 0.50701,-0.0811 0.61335,0.0253 0.10633,0.10633 -0.0827,0.18196 -0.42,0.16807 -0.3728,-0.0154 -0.44861,-0.0912 -0.19335,-0.19334 z m -86.9,-20.49662 c 0.836,-0.0659 2.204,-0.0659 3.04,0 0.836,0.0659 0.152,0.11985 -1.52,0.11985 -1.672,0 -2.356,-0.0539 -1.52,-0.11985 z M 40.783245,146.85652 c 0,-65.031997 0.03677,-91.635997 0.0817,-59.119997 0.04494,32.515997 0.04494,85.723997 0,118.239997 -0.04493,32.516 -0.0817,5.912 -0.0817,-59.12 z m 276.160005,-0.32 c 0,-65.207997 0.0368,-91.883997 0.0817,-59.279997 0.0449,32.603997 0.0449,85.955997 0,118.559997 -0.0449,32.604 -0.0817,5.928 -0.0817,-59.28 z m 369.20778,118.17825 c 0.31136,-0.0811 0.74336,-0.0758 0.96,0.0119 0.21668,0.0877 -0.0381,0.15404 -0.56608,0.14751 -0.528,-0.007 -0.70524,-0.0782 -0.39392,-0.15937 z m 5.29392,-0.31684 c 0.23101,-0.0924 0.50701,-0.0811 0.61335,0.0253 0.10633,0.10633 -0.0827,0.18196 -0.42,0.16807 -0.3728,-0.0154 -0.44861,-0.0912 -0.19335,-0.19334 z m 3.84,-0.32 c 0.23101,-0.0924 0.50701,-0.0811 0.61335,0.0253 0.10633,0.10633 -0.0827,0.18196 -0.42,0.16807 -0.3728,-0.0154 -0.44861,-0.0912 -0.19335,-0.19334 z m -18.58,-27.52724 c 0.396,-0.0763 1.044,-0.0763 1.44,0 0.396,0.0763 0.072,0.13868 -0.72,0.13868 -0.792,0 -1.116,-0.0624 -0.72,-0.13868 z m 90.48,-1.69417 c 1.045,-1.056 1.97197,-1.92 2.05997,-1.92 0.088,0 -0.69497,0.864 -1.73997,1.92 -1.04499,1.056 -1.97196,1.92 -2.05996,1.92 -0.088,0 0.69497,-0.864 1.73996,-1.92 z m -83.12,1.38807 c 0.22,-0.0888 0.58,-0.0888 0.8,0 0.22,0.0888 0.04,0.16141 -0.4,0.16141 -0.44,0 -0.62,-0.0726 -0.4,-0.16141 z m -462.5104,-52.34807 -0.6096,-0.72 0.72,0.6096 c 0.67662,0.57287 0.86568,0.8304 0.6096,0.8304 -0.0607,0 -0.38472,-0.324 -0.72,-0.72 z m -46.57042,-0.48 c -0.39803,-0.50754 -0.38672,-0.51885 0.12082,-0.12082 0.308,0.24156 0.56,0.49356 0.56,0.56 0,0.26338 -0.26278,0.0939 -0.68082,-0.43918 z m -5.40842,-5.76 -2.07076,-2.16 2.16,2.07076 c 2.0063,1.92341 2.30629,2.24924 2.07076,2.24924 -0.0491,0 -1.02109,-0.972 -2.16,-2.16 z m 43.48842,-2.24 c -0.39803,-0.50754 -0.38672,-0.51885 0.12082,-0.12082 0.308,0.24156 0.56,0.49356 0.56,0.56 0,0.26338 -0.26278,0.0939 -0.68082,-0.43918 z M 761.6102,159.78986 c 0.0154,-0.37279 0.0912,-0.44861 0.19335,-0.19334 0.0924,0.231 0.0811,0.507 -0.0253,0.61334 -0.10634,0.10633 -0.18199,-0.0827 -0.1681,-0.42 z m -626.96525,-0.0319 c 0.231,-0.0924 0.50701,-0.0811 0.61334,0.0252 0.10633,0.10633 -0.0827,0.18196 -0.42,0.16807 -0.37279,-0.0154 -0.44861,-0.0912 -0.19334,-0.19333 z m -4.97391,-0.32316 c 0.31135,-0.0811 0.74335,-0.0758 0.96,0.0119 0.21665,0.0877 -0.0381,0.15404 -0.56609,0.14752 -0.528,-0.007 -0.70526,-0.0782 -0.39391,-0.15937 z m 632.25916,-3.8049 c 0.0154,-0.37279 0.0912,-0.44861 0.19335,-0.19334 0.0924,0.231 0.0811,0.507 -0.0253,0.61334 -0.10634,0.10633 -0.18199,-0.0827 -0.1681,-0.42 z m 0.39719,-7.81334 c 0,-1.144 0.0581,-1.612 0.12905,-1.04 0.071,0.572 0.071,1.508 0,2.08 -0.071,0.572 -0.12905,0.104 -0.12905,-1.04 z m 0,-7.36 c 0,-1.144 0.0581,-1.612 0.12905,-1.04 0.071,0.572 0.071,1.508 0,2.08 -0.071,0.572 -0.12905,0.104 -0.12905,-1.04 z M 240.62495,135.2157 c 0,-0.0664 0.252,-0.31844 0.56,-0.56 0.50754,-0.39803 0.51886,-0.38672 0.12082,0.12082 -0.41804,0.53304 -0.68082,0.70256 -0.68082,0.43918 z m 521.30525,-2.62584 c 0.0154,-0.37279 0.0912,-0.44861 0.19335,-0.19334 0.0924,0.231 0.0811,0.507 -0.0253,0.61334 -0.10634,0.10633 -0.18199,-0.0827 -0.1681,-0.42 z m -602.66525,-1.00483 c 0.572,-0.071 1.508,-0.071 2.08,0 0.572,0.071 0.104,0.12907 -1.04,0.12907 -1.144,0 -1.612,-0.0581 -1.04,-0.12907 z m 8.96,-0.30044 c 0.22,-0.0888 0.58,-0.0888 0.8,0 0.22,0.0888 0.04,0.16141 -0.4,0.16141 -0.44,0 -0.62,-0.0726 -0.4,-0.16141 z m 593.38525,-2.85473 c 0.0154,-0.37279 0.0912,-0.44861 0.19335,-0.19334 0.0924,0.231 0.0811,0.507 -0.0253,0.61334 -0.10634,0.10633 -0.18199,-0.0827 -0.1681,-0.42 z M 211.18495,117.63639 c 0,-0.0551 0.468,-0.52307 1.04,-1.04 l 1.04,-0.93987 -0.93987,1.04 c -0.87608,0.96943 -1.14013,1.18709 -1.14013,0.93987 z m 49.02239,-22.779867 c 0.007,-0.528 0.0782,-0.705261 0.15937,-0.393911 0.0811,0.311351 0.0758,0.743351 -0.0119,0.96 -0.0877,0.21665 -0.15404,-0.03809 -0.14752,-0.566089 z m 0.0119,-6.24 c 0,-0.616 0.0659,-0.868 0.14635,-0.56 0.0805,0.308 0.0805,0.812 0,1.12 -0.0805,0.308 -0.14635,0.056 -0.14635,-0.56 z m 511.24493,-28.4 c -0.39801,-0.507539 -0.38672,-0.518858 0.12083,-0.120819 0.53303,0.418038 0.70256,0.680819 0.43917,0.680819 -0.0664,0 -0.31843,-0.252 -0.56,-0.56 z M 691.765,55.757928 c 0.23101,-0.09244 0.50701,-0.08107 0.61335,0.02525 0.10633,0.106332 -0.0827,0.181964 -0.42,0.16807 -0.3728,-0.01536 -0.44861,-0.09118 -0.19335,-0.193331 z m -4.16,-0.32 c 0.23101,-0.09244 0.50701,-0.08107 0.61335,0.02525 0.10633,0.106332 -0.0827,0.181964 -0.42,0.16807 -0.3728,-0.01536 -0.44861,-0.09118 -0.19335,-0.193331 z m -5.93392,-0.323162 c 0.31136,-0.08113 0.74336,-0.0758 0.96,0.01187 0.21668,0.08766 -0.0381,0.154038 -0.56608,0.147517 -0.528,-0.0065 -0.70524,-0.07824 -0.39392,-0.159373 z M 393.98495,54.776532 c 22.308,-0.04535 58.812,-0.04535 81.12,0 22.308,0.04536 4.056,0.08246 -40.56,0.08246 -44.616,0 -62.868,-0.03711 -40.56,-0.08246 z m 231.06432,4.8e-5 c 8.59335,-0.0474 22.56135,-0.04738 31.04,2.9e-5 8.47863,0.04742 1.44768,0.08619 -15.62432,0.08618 -17.072,-1.9e-5 -24.00905,-0.03881 -15.41568,-0.0862 z m 140.01485,-0.960057 c -0.39801,-0.507539 -0.38672,-0.518858 0.12083,-0.120819 0.53303,0.418038 0.70256,0.680819 0.43917,0.680819 -0.0664,0 -0.31843,-0.252 -0.56,-0.56 z M 175.92495,53.517928 c 0.231,-0.09244 0.50701,-0.08107 0.61334,0.02525 0.10633,0.106332 -0.0827,0.181964 -0.42,0.16807 -0.37279,-0.01536 -0.44861,-0.09118 -0.19334,-0.193331 z m -4.97391,-0.323162 c 0.31135,-0.08113 0.74335,-0.0758 0.96,0.01187 0.21665,0.08766 -0.0381,0.154038 -0.56609,0.147517 -0.528,-0.0065 -0.70526,-0.07824 -0.39391,-0.159373 z m 72.51309,-4.178243 c -0.39803,-0.507539 -0.38672,-0.518858 0.12082,-0.120819 0.308,0.241552 0.56,0.493552 0.56,0.56 0,0.263372 -0.26278,0.09386 -0.68082,-0.439181 z m -3.52,-3.52 c -0.39803,-0.507539 -0.38672,-0.518858 0.12082,-0.120819 0.308,0.241552 0.56,0.493552 0.56,0.56 0,0.263372 -0.26278,0.09386 -0.68082,-0.439181 z m 6.70295,-17.279778 c 4.28016,-0.05044 11.19216,-0.05038 15.36,1.13e-4 4.16783,0.0505 0.66587,0.09176 -7.78213,0.0917 -8.448,-6.3e-5 -11.85804,-0.04138 -7.57787,-0.09181 z m 448.61787,-0.932152 c 0.22,-0.08877 0.58,-0.08877 0.8,0 0.22,0.08877 0.04,0.161403 -0.4,0.161403 -0.44,0 -0.62,-0.07263 -0.4,-0.161403 z m 41.62212,-0.347848 c 4.28019,-0.05044 11.19219,-0.05038 15.36,1.13e-4 4.16784,0.0505 0.66588,0.09176 -7.78212,0.0917 -8.448,-6.3e-5 -11.85804,-0.04138 -7.57788,-0.09181 z M 329.02495,8.376526 c 40.788,-0.044749 107.532,-0.044749 148.32,0 40.788,0.044749 7.416,0.081362 -74.16,0.081362 -81.576,0 -114.948,-0.036613 -74.16,-0.081362 z"
         id="path1232" />
      <path
         style="fill:#af071f;fill-opacity:1;stroke-width:0.32"
         d="m 291.46413,724.53652 c -0.39803,-0.50755 -0.38672,-0.51885 0.12082,-0.12083 0.53304,0.41805 0.70256,0.68083 0.43918,0.68083 -0.0664,0 -0.31844,-0.252 -0.56,-0.56 z m -84.11918,-0.52083 c 0,-0.0664 0.252,-0.31843 0.56,-0.56 0.50754,-0.39802 0.51886,-0.38672 0.12082,0.12083 -0.41804,0.53303 -0.68082,0.70256 -0.68082,0.43917 z m 568,-0.6193 c 0,-0.0551 0.468,-0.52307 1.04,-1.04 l 1.04,-0.93987 -0.93987,1.04 c -0.87609,0.96944 -1.14013,1.18711 -1.14013,0.93987 z m -150.41094,-2.69987 -1.74906,-1.84 1.84,1.74906 c 1.70941,1.62496 1.9866,1.93094 1.74906,1.93094 -0.05,0 -0.87798,-0.828 -1.84,-1.84 z m -337.62988,-0.32 c -0.39803,-0.50755 -0.38672,-0.51885 0.12082,-0.12083 0.308,0.24157 0.56,0.49357 0.56,0.56 0,0.26339 -0.26278,0.0939 -0.68082,-0.43917 z m 491.88082,-0.88 c 0.41335,-0.44 0.82356,-0.8 0.91156,-0.8 0.088,0 -0.17821,0.36 -0.59156,0.8 -0.41334,0.44 -0.82355,0.8 -0.91155,0.8 -0.088,0 0.17821,-0.36 0.59155,-0.8 z m -566.72,-0.60083 c 0,-0.0664 0.252,-0.31843 0.56,-0.56 0.50754,-0.39802 0.51886,-0.38672 0.12082,0.12083 -0.41804,0.53303 -0.68082,0.70256 -0.68082,0.43917 z m 204.8,-12.48 c 0,-0.0664 0.252,-0.31843 0.56,-0.56 0.50756,-0.39802 0.51885,-0.38672 0.12084,0.12083 -0.41805,0.53303 -0.68084,0.70256 -0.68084,0.43917 z m 2.56,-2.56 c 0,-0.0664 0.252,-0.31843 0.56,-0.56 0.50756,-0.39802 0.51885,-0.38672 0.12084,0.12083 -0.41805,0.53303 -0.68084,0.70256 -0.68084,0.43917 z m -235.52,-0.2993 c 0,-0.0551 0.468,-0.52307 1.04,-1.04 l 1.04,-0.93987 -0.93987,1.04 c -0.87608,0.96944 -1.14013,1.18711 -1.14013,0.93987 z m 465.87917,-0.45987 c -0.39801,-0.50755 -0.38672,-0.51885 0.12083,-0.12083 0.53303,0.41805 0.70256,0.68083 0.43917,0.68083 -0.0664,0 -0.31843,-0.252 -0.56,-0.56 z m -569.250098,-1.92 -1.749068,-1.84 1.84,1.74906 c 1.012,0.96201 1.84,1.79001 1.84,1.84 0,0.23753 -0.305991,-0.0396 -1.930932,-1.74906 z m 231.370928,0.08 c -0.77729,-0.792 -1.34125,-1.44 -1.25325,-1.44 0.088,0 0.79596,0.648 1.57325,1.44 0.77729,0.792 1.34126,1.44 1.25326,1.44 -0.088,0 -0.79597,-0.648 -1.57326,-1.44 z m -18.92082,-90.64 c -0.39803,-0.50755 -0.38672,-0.51885 0.12082,-0.12083 0.53304,0.41805 0.70256,0.68083 0.43918,0.68083 -0.0664,0 -0.31844,-0.252 -0.56,-0.56 z m -3.2,-3.2 c -0.39803,-0.50755 -0.38672,-0.51885 0.12082,-0.12083 0.53304,0.41805 0.70256,0.68083 0.43918,0.68083 -0.0664,0 -0.31844,-0.252 -0.56,-0.56 z m 25.14577,-19.04 -1.26495,-1.36 1.36,1.26493 c 1.26479,1.17638 1.50705,1.45507 1.26495,1.45507 -0.0523,0 -0.66428,-0.612 -1.36,-1.36 z m 330.41505,-31.08083 c 0,-0.0664 0.252,-0.31843 0.56,-0.56 0.50756,-0.39802 0.51885,-0.38672 0.12084,0.12083 -0.41805,0.53303 -0.68084,0.70256 -0.68084,0.43917 z M 80.784954,554.85652 c 1.044982,-1.056 1.971964,-1.92 2.059964,-1.92 0.088,0 -0.694982,0.864 -1.739964,1.92 -1.044983,1.056 -1.971965,1.92 -2.059965,1.92 -0.088,0 0.694982,-0.864 1.739965,-1.92 z m 104.759176,-2.16 c -0.39803,-0.50755 -0.38672,-0.51885 0.12082,-0.12083 0.53304,0.41805 0.70256,0.68083 0.43918,0.68083 -0.0664,0 -0.31844,-0.252 -0.56,-0.56 z m 464.36082,0.43917 c 0,-0.0664 0.252,-0.31843 0.56,-0.56 0.50756,-0.39802 0.51885,-0.38672 0.12084,0.12083 -0.41805,0.53303 -0.68084,0.70256 -0.68084,0.43917 z m 102.2096,-1.23917 -0.6096,-0.72 0.72,0.6096 c 0.67661,0.57287 0.86567,0.8304 0.6096,0.8304 -0.0607,0 -0.38473,-0.324 -0.72,-0.72 z m -2.56,-2.56 -0.6096,-0.72 0.72,0.6096 c 0.67661,0.57287 0.86567,0.8304 0.6096,0.8304 -0.0607,0 -0.38473,-0.324 -0.72,-0.72 z m -340.95382,-0.48 -0.77578,-0.88 0.88,0.77578 c 0.484,0.42669 0.88,0.82269 0.88,0.88 0,0.25097 -0.25913,0.0467 -0.98422,-0.77578 z m -92.77578,0.45987 c 0,-0.0551 0.468,-0.52307 1.04,-1.04 l 1.04,-0.93987 -0.93987,1.04 c -0.87608,0.96944 -1.14013,1.18711 -1.14013,0.93987 z m -134.44082,-0.77987 c -0.39803,-0.50755 -0.38672,-0.51885 0.12082,-0.12083 0.308,0.24157 0.56,0.49357 0.56,0.56 0,0.26339 -0.26278,0.0939 -0.68082,-0.43917 z M 51.824954,542.25569 c 0,-0.0664 0.252,-0.31843 0.56,-0.56 0.507539,-0.39802 0.518857,-0.38672 0.120819,0.12083 -0.418039,0.53303 -0.680819,0.70256 -0.680819,0.43917 z m 728.279166,-5.23917 c -0.39801,-0.50755 -0.38672,-0.51885 0.12083,-0.12083 0.53303,0.41805 0.70256,0.68083 0.43917,0.68083 -0.0664,0 -0.31843,-0.252 -0.56,-0.56 z M 58.864954,535.21569 c 0,-0.0664 0.252,-0.31843 0.56,-0.56 0.507539,-0.39802 0.518857,-0.38672 0.120819,0.12083 -0.418039,0.53303 -0.680819,0.70256 -0.680819,0.43917 z m 374.539876,-4.43917 -0.93988,-1.04 1.04,0.93987 c 0.572,0.51693 1.04,0.98493 1.04,1.04 0,0.24724 -0.26403,0.0294 -1.14012,-0.93987 z m 340.61929,0.16 c -0.39801,-0.50755 -0.38672,-0.51885 0.12083,-0.12083 0.53303,0.41805 0.70256,0.68083 0.43917,0.68083 -0.0664,0 -0.31843,-0.252 -0.56,-0.56 z m -42.37929,-44 -0.93988,-1.04 1.04,0.93987 c 0.572,0.51693 1.04,0.98493 1.04,1.04 0,0.24724 -0.26403,0.0294 -1.14012,-0.93987 z m -91.38071,-2.08 c -0.39801,-0.50755 -0.38672,-0.51885 0.12083,-0.12083 0.308,0.24157 0.56,0.49357 0.56,0.56 0,0.26339 -0.26278,0.0939 -0.68083,-0.43917 z m 136.68083,-5.04 c 0.41335,-0.44 0.82356,-0.8 0.91156,-0.8 0.088,0 -0.17821,0.36 -0.59156,0.8 -0.41334,0.44 -0.82355,0.8 -0.91155,0.8 -0.088,0 0.17821,-0.36 0.59155,-0.8 z m -36.9904,-1.2 -0.6096,-0.72 0.72,0.6096 c 0.67661,0.57287 0.86567,0.8304 0.6096,0.8304 -0.0607,0 -0.38473,-0.324 -0.72,-0.72 z m -452.65042,-17.12 c -0.39803,-0.50755 -0.38672,-0.51885 0.12082,-0.12083 0.53304,0.41805 0.70256,0.68083 0.43918,0.68083 -0.0664,0 -0.31844,-0.252 -0.56,-0.56 z m 498.5766,-7.68 -0.77578,-0.88 0.88,0.77578 c 0.8225,0.72509 1.02676,0.98422 0.77578,0.98422 -0.0573,0 -0.45331,-0.396 -0.88,-0.88 z M 342.06495,422.89569 c 0,-0.0664 0.252,-0.31843 0.56,-0.56 0.50756,-0.39802 0.51885,-0.38672 0.12084,0.12083 -0.41805,0.53303 -0.68084,0.70256 -0.68084,0.43917 z m -56.04082,-2.03917 c -0.39803,-0.50755 -0.38672,-0.51885 0.12082,-0.12083 0.308,0.24157 0.56,0.49357 0.56,0.56 0,0.26339 -0.26278,0.0939 -0.68082,-0.43917 z m 455.24082,-0.4 c 0.31856,-0.352 0.6512,-0.64 0.7392,-0.64 0.088,0 -0.10064,0.288 -0.4192,0.64 -0.31856,0.352 -0.6512,0.64 -0.7392,0.64 -0.088,0 0.10064,-0.288 0.4192,-0.64 z m -100.97337,-4.24 c 1.32608,-1.41286 1.61337,-1.66691 1.61337,-1.42662 0,0.0514 -0.684,0.73536 -1.52,1.52 l -1.52,1.42662 z m 57.61337,-0.08 c -0.77728,-0.792 -1.34124,-1.44 -1.25324,-1.44 0.088,0 0.79596,0.648 1.57324,1.44 0.77728,0.792 1.34125,1.44 1.25325,1.44 -0.088,0 -0.79597,-0.648 -1.57325,-1.44 z m -364.48,-0.32 c 0.41335,-0.44 0.82356,-0.8 0.91156,-0.8 0.088,0 -0.17821,0.36 -0.59156,0.8 -0.41334,0.44 -0.82355,0.8 -0.91155,0.8 -0.088,0 0.17821,-0.36 0.59155,-0.8 z m 53.71917,-1.68 c -0.39801,-0.50755 -0.38672,-0.51885 0.12083,-0.12083 0.53303,0.41805 0.70256,0.68083 0.43917,0.68083 -0.0664,0 -0.31843,-0.252 -0.56,-0.56 z m 395.69043,-0.16 -0.6096,-0.72 0.72,0.6096 c 0.67661,0.57287 0.86567,0.8304 0.6096,0.8304 -0.0607,0 -0.38473,-0.324 -0.72,-0.72 z m -49.7296,-1.04 c 0.41335,-0.44 0.82356,-0.8 0.91156,-0.8 0.088,0 -0.17821,0.36 -0.59156,0.8 -0.41334,0.44 -0.82355,0.8 -0.91155,0.8 -0.088,0 0.17821,-0.36 0.59155,-0.8 z m 48.27917,-0.4 c -0.39801,-0.50755 -0.38672,-0.51885 0.12083,-0.12083 0.53303,0.41805 0.70256,0.68083 0.43917,0.68083 -0.0664,0 -0.31843,-0.252 -0.56,-0.56 z m 1.64083,-43.76 c 0.59706,-0.616 1.15754,-1.12 1.24554,-1.12 0.088,0 -0.32848,0.504 -0.92554,1.12 -0.59705,0.616 -1.15753,1.12 -1.24553,1.12 -0.088,0 0.32848,-0.504 0.92553,-1.12 z m -690.559996,0.69987 c 0,-0.0551 0.468,-0.52307 1.04,-1.04 l 1.04,-0.93987 -0.939869,1.04 c -0.87609,0.96944 -1.140131,1.18711 -1.140131,0.93987 z m 532.799996,-0.0208 c 0,-0.0664 0.252,-0.31843 0.56,-0.56 0.50756,-0.39801 0.51885,-0.38672 0.12084,0.12084 -0.41805,0.53302 -0.68084,0.70256 -0.68084,0.43916 z m 109.73578,-1.07916 -0.77578,-0.88 0.88,0.77577 c 0.8225,0.72509 1.02676,0.98423 0.77578,0.98423 -0.0573,0 -0.45331,-0.396 -0.88,-0.88 z m -156.47299,-0.64 -1.10279,-1.2 1.2,1.10278 c 1.11693,1.02643 1.34714,1.29722 1.10279,1.29722 -0.0535,0 -0.59347,-0.54 -1.2,-1.2 z m -191.34279,0.43926 c 0,-0.0664 0.252,-0.31843 0.56,-0.56 0.50756,-0.39802 0.51885,-0.38672 0.12084,0.12083 -0.41805,0.53303 -0.68084,0.70256 -0.68084,0.43917 z m -50.25721,-1.71917 -1.10279,-1.2 1.2,1.10279 c 1.11693,1.02643 1.34714,1.29721 1.10279,1.29721 -0.0535,0 -0.59347,-0.54 -1.2,-1.2 z m 290.57721,0.75917 c 0,-0.0664 0.252,-0.31843 0.56,-0.56 0.50756,-0.39802 0.51885,-0.38672 0.12084,0.12083 -0.41805,0.53303 -0.68084,0.70256 -0.68084,0.43917 z m -237.76,-1.6 c 0,-0.0664 0.252,-0.31843 0.56,-0.56 0.50756,-0.39802 0.51885,-0.38672 0.12084,0.12083 -0.41805,0.53303 -0.68084,0.70256 -0.68084,0.43917 z m -304.820128,-26.51917 -0.939868,-1.04 1.04,0.93987 c 0.969427,0.8761 1.187088,1.14013 0.939868,1.14013 -0.05507,0 -0.523072,-0.468 -1.04,-1.04 z m 296.459298,-35.04 c -0.39801,-0.50754 -0.38672,-0.51885 0.12083,-0.12082 0.308,0.24156 0.56,0.49356 0.56,0.56 0,0.26338 -0.26278,0.0939 -0.68083,-0.43918 z m 196.68083,-8.4 c 0.68743,-0.704 1.32189,-1.28 1.40989,-1.28 0.088,0 -0.40246,0.576 -1.08989,1.28 -0.68742,0.704 -1.32188,1.28 -1.40988,1.28 -0.088,0 0.40246,-0.576 1.08988,-1.28 z m -239.84,-1.08082 c 0,-0.0664 0.252,-0.31844 0.56,-0.56 0.50756,-0.39803 0.51885,-0.38672 0.12084,0.12082 -0.41805,0.53304 -0.68084,0.70256 -0.68084,0.43918 z m -137.14013,-1.23918 -0.93987,-1.04 1.04,0.93987 c 0.96943,0.87609 1.18709,1.14013 0.93987,1.14013 -0.0551,0 -0.52307,-0.468 -1.04,-1.04 z m 534.26013,0.61987 c 0,-0.0551 0.468,-0.52307 1.04,-1.04 l 1.04,-0.93987 -0.93987,1.04 c -0.87609,0.96943 -1.14013,1.18709 -1.14013,0.93987 z m 29.28,-56.53987 c 0.31856,-0.352 0.6512,-0.64 0.7392,-0.64 0.088,0 -0.10064,0.288 -0.4192,0.64 -0.31856,0.352 -0.6512,0.64 -0.7392,0.64 -0.088,0 0.10064,-0.288 0.4192,-0.64 z m 5.12,-5.12 c 0.31856,-0.352 0.6512,-0.64 0.7392,-0.64 0.088,0 -0.10064,0.288 -0.4192,0.64 -0.31856,0.352 -0.6512,0.64 -0.7392,0.64 -0.088,0 0.10064,-0.288 0.4192,-0.64 z m -29.6,-17.40082 c 0,-0.0664 0.252,-0.31844 0.56,-0.56 0.50756,-0.39803 0.51885,-0.38672 0.12084,0.12082 -0.41805,0.53304 -0.68084,0.70256 -0.68084,0.43918 z M 222.66413,185.01652 c -0.39803,-0.50754 -0.38672,-0.51885 0.12082,-0.12082 0.308,0.24156 0.56,0.49356 0.56,0.56 0,0.26338 -0.26278,0.0939 -0.68082,-0.43918 z m -10.56,-10.56 c -0.39803,-0.50754 -0.38672,-0.51885 0.12082,-0.12082 0.308,0.24156 0.56,0.49356 0.56,0.56 0,0.26338 -0.26278,0.0939 -0.68082,-0.43918 z m -47.04,-0.96 c -0.39803,-0.50754 -0.38672,-0.51885 0.12082,-0.12082 0.308,0.24156 0.56,0.49356 0.56,0.56 0,0.26338 -0.26278,0.0939 -0.68082,-0.43918 z m 575.53042,-96.159997 -0.6096,-0.72 0.72,0.609597 c 0.67661,0.57287 0.86567,0.830403 0.6096,0.830403 -0.0607,0 -0.38473,-0.324 -0.72,-0.72 z m -3.52,-3.52 -0.6096,-0.72 0.72,0.609597 c 0.396,0.335276 0.72,0.659276 0.72,0.72 0,0.25608 -0.25753,0.06702 -0.8304,-0.609597 z"
         id="path1230" />
      <path
         style="fill:#af071f;fill-opacity:1;stroke-width:0.32"
         d="M -0.65504634,388.61652 V 0.61652285 H 412.62495 h 413.28 V 388.61652 v 388 H 412.62495 -0.65504634 Z M 815.66495,385.14977 V 8.7230176 L 617.37167,8.5097702 C 508.31036,8.3924841 327.23036,8.2965228 214.97168,8.2965228 H 10.864954 v 376.6399972 376.64 h 402.399996 402.4 z m -249.28,362.32899 c -154.41196,-0.31987 -173.66236,-0.37862 -172.8,-0.52745 2.9632,-0.51133 10.06368,-2.29117 13.43348,-3.36727 22.05724,-7.04365 37.52096,-19.32675 46.47808,-36.91837 3.17584,-6.23734 5.20416,-12.61036 6.16505,-19.37078 0.62333,-4.38534 0.6169,-13.0592 -0.0131,-17.57552 -2.9192,-20.92973 -16.2727,-37.08474 -39.35043,-47.60598 -8.55821,-3.90173 -24.10026,-8.49098 -44.47315,-13.13204 -4.576,-1.04243 -11.632,-2.65052 -15.68,-3.57353 -17.89997,-4.08144 -31.20234,-8.38535 -38.80909,-12.55645 -3.18738,-1.74778 -8.07065,-6.50483 -9.93473,-9.67792 -2.37978,-4.0511 -3.57609,-8.64285 -3.57609,-13.7263 0,-7.94871 2.67896,-14.31108 8.61589,-20.46218 8.81304,-9.13101 20.52287,-13.27958 40.37999,-14.30595 13.59654,-0.70279 26.62688,0.87395 36.03856,4.36083 15.35222,5.68778 25.22563,17.89219 28.26358,34.93635 0.36864,2.06816 0.73411,4.08432 0.81219,4.48032 0.0959,0.4865 0.37351,0.72195 0.85591,0.72602 1.22515,0.0102 28.835,-1.95805 29.58156,-2.10896 0.66708,-0.13485 0.69805,-0.26682 0.53962,-2.30007 -0.74861,-9.60921 -2.91984,-18.04176 -6.65248,-25.83699 -11.59325,-24.21133 -35.1335,-38.01334 -70.75482,-41.48473 -6.17212,-0.60148 -21.60531,-0.5169 -27.59862,0.15126 -21.01875,2.34323 -38.12853,8.70768 -49.9692,18.58739 -14.6729,12.24291 -22.76445,31.21456 -21.20004,49.70608 1.47581,17.44419 9.86951,31.12023 25.48786,41.52794 11.63296,7.7519 26.47664,12.94413 57.6,20.14803 39.72375,9.19456 51.83661,13.70413 60.64,22.57606 10.25853,10.3384 11.45037,26.7153 2.86506,39.36848 -5.8871,8.67652 -15.81414,14.83853 -29.63126,18.39306 -13.62509,3.50509 -31.23882,3.79981 -45.89405,0.7679 -7.11763,-1.47251 -13.11245,-3.51548 -19.65975,-6.6999 -11.69121,-5.68621 -19.49472,-13.14544 -24.37244,-23.29712 -2.51536,-5.23504 -4.8882,-13.5744 -5.73556,-20.1576 l -0.21794,-1.69318 -1.31703,0.17232 c -0.72436,0.0947 -7.58103,0.6928 -15.23703,1.32899 -7.656,0.63619 -13.94894,1.1815 -13.98431,1.21184 -0.0354,0.0304 0.0744,1.92221 0.24402,4.20416 1.54375,20.77267 10.85292,39.55027 26.06029,52.56637 11.43679,9.78883 26.19725,16.4032 44,19.71702 2.376,0.44227 4.68,0.87344 5.12,0.95818 0.44,0.0848 -10.576,0.0897 -24.48,0.0109 -13.904,-0.0787 -54.944,-0.15328 -91.2,-0.1657 l -65.92,-0.0227 3.36,-0.77069 c 8.38442,-1.9231 15.68805,-4.5768 23.21682,-8.43555 20.15918,-10.33222 34.75355,-26.57466 44.32525,-49.33066 2.51606,-5.98172 6.13533,-17.28768 5.67993,-17.74307 -0.18333,-0.18333 -31.20365,-7.82045 -31.80349,-7.82992 -0.18782,-0.003 -0.60227,1.11059 -0.921,2.47459 -0.82578,3.53396 -3.15905,10.68071 -4.68065,14.33671 -6.87573,16.5207 -17.3847,27.98857 -32.40625,35.3632 -9.94006,4.87993 -20.29091,7.10697 -33.01061,7.10246 -14.80675,-0.005 -28.77833,-3.75654 -41.183964,-11.05766 -9.08657,-5.34771 -16.972781,-13.29443 -22.648087,-22.82179 -13.260915,-22.26164 -17.777385,-61.1208 -10.699955,-92.06112 3.571702,-15.6144 8.707693,-27.16109 16.078483,-36.14756 2.671584,-3.25721 8.663482,-8.99526 11.967626,-11.46064 13.882517,-10.35843 31.146967,-15.22521 51.765897,-14.59264 12.04211,0.36944 21.13725,2.52727 30.08,7.13648 9.63101,4.96397 16.85966,11.92666 23.05069,22.20256 2.93774,4.8761 7.27955,14.45988 8.16639,18.02586 0.1239,0.49821 0.41142,0.97725 0.63894,1.06458 0.34041,0.13062 31.45776,-6.77754 31.72281,-7.0426 0.18245,-0.18246 -2.83769,-8.60905 -4.37593,-12.20947 -10.39909,-24.33968 -29.62127,-42.25968 -54.0829,-50.41885 -23.52782,-7.84768 -53.96231,-7.52355 -78.415974,0.83514 -31.500653,10.76746 -52.720195,31.01046 -64.676602,61.7001 l -1.264433,3.24553 0.178506,-59.17315 c 0.09818,-32.54522 0.178507,-156.20522 0.178507,-274.79999 V 28.776523 h 4.64 4.64 v 118.239997 118.24 h 18.4 18.4 v -52.98309 -52.98309 l 28.079996,0.13362 c 30.39797,0.14465 31.55763,0.20513 37.55617,1.95866 13.0081,3.8026 22.02236,10.40813 35.19978,25.7939 8.93696,10.43469 16.31924,20.15268 42.36231,55.76547 l 16.31826,22.31453 h 22.98841 c 14.83725,0 22.95058,-0.11094 22.88174,-0.3129 -0.0987,-0.28944 -41.1383,-56.19801 -47.90862,-65.26625 -5.40465,-7.23904 -10.58646,-13.19052 -17.44752,-20.03907 -7.26949,-7.25623 -11.7131,-11.07799 -16.51237,-14.20159 -2.831,-1.84256 -11.33682,-6.28232 -15.35816,-8.01646 l -1.76,-0.75897 4,-0.57307 c 17.91665,-2.56684 33.1977,-7.53345 44.22873,-14.37511 9.77581,-6.06315 18.25321,-15.2767 22.84064,-24.82403 8.8224,-18.361158 7.02906,-41.513373 -4.59427,-59.312547 -10.41556,-15.949687 -24.36412,-24.389847 -46.7951,-28.315338 l -4.32,-0.756014 23.52,-0.02448 c 12.936,-0.01347 39.396,-0.120196 58.8,-0.237177 l 35.28,-0.212693 V 146.64367 265.25652 h 102.56 102.56 v -14.24 -14.24 h -84.16 -84.16 v -40.48 -40.48 h 75.84 75.84 v -14.08 -14.08 h -75.84 -75.84 v -36.319997 -36.32 h 80.96 80.96 v -13.76 -13.76 h 28.8 28.8 v 118.879997 118.88 l 51.76,-0.003 c 51.35908,-0.003 60.55517,-0.15021 71.12,-1.13836 18.30029,-1.71167 33.6513,-5.51799 46.72,-11.58435 15.54173,-7.21431 30.16311,-20.80959 39.72685,-36.93886 5.56099,-9.37867 10.28759,-20.94372 13.24807,-32.41539 l 1.40387,-5.44 0.0106,192.92595 0.0106,192.92592 -2.84695,-5.72592 c -9.00489,-18.11113 -22.19456,-31.47705 -39.71305,-40.2438 -11.05722,-5.53338 -22.69005,-8.76103 -36.64,-10.16615 -5.95149,-0.59949 -20.52797,-0.51456 -26.61325,0.15507 -22.97558,2.5282 -43.50602,10.49696 -59.94675,23.268 -3.81133,2.96061 -10.48355,9.43229 -13.8368,13.42093 -13.47911,16.03315 -22.12151,36.70259 -25.19162,60.24903 -1.70701,13.09206 -1.76477,29.07353 -0.15174,41.99097 3.0312,24.27498 11.7055,47.43555 23.87779,63.75434 15.24621,20.43984 35.62125,32.25901 63.30237,36.72054 l 4.64,0.74784 -8.48,-0.036 c -4.664,-0.0198 -53.768,-0.12982 -109.12,-0.24448 z m -24.32,-119.50224 v -116.96 h -16.16 -16.16 v 116.96 116.96 h 16.16 16.16 z M 372.21081,495.2418 c 5.85024,-1.54691 10.51654,-4.15856 14.86595,-8.32029 4.20746,-4.02582 7.56554,-9.5182 9.62672,-15.74499 1.56426,-4.72566 1.55885,-4.56397 0.16429,-4.92656 -0.66154,-0.17203 -3.19082,-0.83523 -5.62064,-1.47382 -2.42979,-0.63859 -4.57146,-1.10986 -4.75923,-1.04727 -0.18781,0.0626 -0.68442,1.30176 -1.10362,2.7537 -3.18752,11.04099 -9.72867,17.38547 -19.72534,19.13226 -9.00259,1.57308 -19.21482,-2.01674 -24.57792,-8.63968 -8.8065,-10.8752 -10.15299,-34.66375 -2.75351,-48.64583 2.36144,-4.46217 6.82448,-8.62096 11.55204,-10.76454 4.27763,-1.93955 10.20166,-2.80096 15.19616,-2.20963 9.92665,1.17529 15.75036,6.4151 19.66988,17.69769 0.15021,0.43239 0.40397,0.54407 0.92327,0.40634 0.39385,-0.10445 2.98409,-0.72474 5.75609,-1.37837 2.83501,-0.66848 5.04,-1.34675 5.04,-1.5503 0,-0.19904 -0.34838,-1.38621 -0.7742,-2.63812 -3.91952,-11.52393 -12.66676,-19.57696 -24.08967,-22.17792 -3.70934,-0.8446 -10.86765,-1.15145 -14.93065,-0.64006 -15.64263,1.96896 -27.30023,11.30266 -32.34208,25.89482 -4.79204,13.86912 -3.73264,31.64105 2.68729,45.08057 2.08589,4.36663 4.25811,7.43837 7.45155,10.53715 4.26448,4.13815 7.6889,6.16909 13.35776,7.92231 4.57223,1.41408 7.78698,1.77213 14.88,1.65737 5.64717,-0.0914 6.76535,-0.20019 9.50586,-0.92483 z m 304.59776,0.53783 c 13.05194,-2.23668 23.43235,-10.01815 28.97635,-21.72164 3.31927,-7.00704 4.91133,-14.54873 4.91741,-23.29408 0.0166,-23.88131 -12.17994,-40.77801 -32.63738,-45.21472 -1.32,-0.28627 -4.56,-0.59465 -7.2,-0.68524 -11.60131,-0.39821 -20.70982,2.64774 -28.66476,9.5856 -8.7992,7.6742 -13.65293,19.29321 -14.27303,34.16697 -0.70585,16.93168 5.46323,31.49136 17.01779,40.16381 4.20532,3.15635 11.1584,6.10298 16.52343,7.00234 3.78998,0.63536 11.62387,0.63379 15.34019,-0.003 z m -12.02362,-10.05552 c -12.42822,-1.93799 -21.32064,-11.20301 -24.00572,-25.01149 -1.5832,-8.14192 -0.6409,-20.25095 2.15337,-27.67245 1.55546,-4.1312 2.90752,-6.26397 5.85235,-9.23142 5.57156,-5.61444 12.46573,-8.47223 20.43837,-8.47223 14.94711,0 25.46074,9.60074 28.55984,26.08 0.89898,4.78023 0.82128,15.06055 -0.14809,19.59479 -1.27405,5.95942 -3.15504,10.28444 -6.23015,14.32521 -3.4607,4.54743 -9.25539,8.3817 -14.77997,9.77971 -2.96326,0.74989 -8.95619,1.05757 -11.84,0.60788 z m 102.85328,10.08115 c 3.56756,-0.57856 6.8618,-1.63779 10.03722,-3.22736 6.73917,-3.37354 10.99645,-8.20154 13.41123,-15.20919 0.97898,-2.84102 1.03063,-3.22662 1.02247,-7.63219 -0.008,-4.15193 -0.098,-4.90928 -0.85821,-7.2 -2.54471,-7.66752 -8.3528,-12.83853 -18.14599,-16.15552 -1.672,-0.5663 -7.504,-2.15296 -12.96,-3.52589 -10.59865,-2.66704 -14.42851,-3.90304 -17.15036,-5.53491 -4.56807,-2.73872 -6.25402,-8.58691 -3.87101,-13.42749 1.95392,-3.96899 5.80384,-6.6648 11.10137,-7.77347 3.46,-0.72409 10.96656,-0.7311 14.24,-0.0134 7.00474,1.536 11.57258,5.83706 13.27309,12.49783 0.26781,1.04899 0.48691,2.30899 0.48691,2.8 0,1.05452 -0.26662,1.02886 5.76,0.55491 6.35988,-0.50013 5.88416,-0.27293 5.63636,-2.69165 -0.71072,-6.93722 -4.05236,-13.47981 -8.91565,-17.4561 -9.15191,-7.48272 -27.03507,-9.31286 -39.52563,-4.04502 -6.57799,2.77424 -11.09015,7.48477 -13.39325,13.98208 -1.12026,3.16035 -1.43882,9.59661 -0.63373,12.80352 1.25117,4.98374 4.5975,9.59725 9.1624,12.632 4.11232,2.73389 7.7921,4.06432 19.9895,7.22733 11.36861,2.94806 13.56916,3.62697 16.7464,5.16659 3.23072,1.56554 5.51652,3.68925 6.70839,6.23274 0.7599,1.6216 0.86521,2.2367 0.86521,5.05308 0,2.96647 -0.0774,3.36391 -1.0326,5.30423 -3.24224,6.58595 -12.53168,10.3287 -23.01652,9.27347 -11.68796,-1.17632 -18.84454,-6.53392 -21.24022,-15.9009 -0.34685,-1.35625 -0.63066,-2.87484 -0.63066,-3.37472 0,-0.6526 -0.15785,-0.90848 -0.56,-0.90771 -0.82054,0 -7.68764,0.61005 -9.32566,0.82627 l -1.40563,0.18554 0.18601,2.77357 c 0.57018,8.50166 5.44004,16.83485 12.55095,21.47689 4.07945,2.66311 9.93513,4.69316 15.57952,5.40119 3.89827,0.48899 12.56806,0.42589 15.90809,-0.11581 z M 87.984954,476.14871 v -18.86777 l 17.119996,-25.31037 c 9.416,-13.9207 17.12,-25.37702 17.12,-25.45846 0,-0.0814 -3.11255,-0.10925 -6.91679,-0.0618 l -6.9168,0.0862 -8.969901,13.92 c -4.933446,7.656 -10.734851,16.84464 -12.892009,20.41917 l -3.922109,6.49917 -1.592435,-2.81917 c -2.873424,-5.08698 -5.555623,-9.41798 -14.792372,-23.8857 l -9.11758,-14.28105 -7.154237,-0.006 c -5.914339,-0.005 -7.125194,0.0695 -6.986663,0.43049 0.09217,0.24016 7.595575,11.78992 16.674237,25.66608 l 16.506663,25.22944 v 18.65389 18.65389 h 5.92 5.92 v -18.86781 z m 65.199726,13.50781 c 1.05258,-2.948 3.19325,-8.99654 4.75703,-13.44121 l 2.84324,-8.08122 17.91885,0.0812 17.91885,0.0812 4.99659,13.28 4.99659,13.28 6.79338,0.0864 c 4.15356,0.0529 6.75109,-0.0307 6.68456,-0.21504 -0.0599,-0.16585 -8.02882,-20.11072 -17.70882,-44.32198 l -17.6,-44.02045 -6.422,-0.004 -6.42201,-0.004 -16.41614,43.7113 c -9.02887,24.04125 -16.48777,43.98525 -16.57532,44.32 -0.15242,0.58291 0.10537,0.6087 6.08112,0.6087 h 6.24029 z m 11.28027,-31.68928 c 0,-0.13712 1.81092,-5.21312 4.02427,-11.28 5.71746,-15.67187 7.06801,-19.68566 8.42412,-25.03635 l 1.1977,-4.72563 1.69418,5.20563 c 0.9318,2.8631 4.0694,11.61363 6.97245,19.44563 2.90305,7.832 5.47191,14.78 5.70858,15.44 l 0.43031,1.2 h -14.2258 c -7.82419,0 -14.22581,-0.11219 -14.22581,-0.24928 z m 80.32,17.36928 v -19.68 l 7.92,0.006 c 4.356,0.004 8.83515,0.13875 9.95365,0.30045 2.44144,0.35299 6.08355,2.0391 7.99031,3.69914 3.33781,2.90588 8.15383,9.80796 18.13604,25.99161 l 5.76,9.3384 7.28,0.0122 c 4.74009,0.008 7.28,-0.10182 7.28,-0.31424 0,-0.34243 -13.69407,-22.47395 -16.37947,-26.47152 -2.12845,-3.16845 -5.8902,-7.63872 -7.92848,-9.42176 -0.92806,-0.81184 -2.60406,-2.01216 -3.72444,-2.66739 -1.12038,-0.6552 -1.9692,-1.30109 -1.88627,-1.4353 0.0829,-0.13417 0.83656,-0.34656 1.67473,-0.47196 2.51417,-0.37613 6.47306,-1.74439 9.4003,-3.2489 8.45096,-4.34352 12.8072,-13.04195 11.75743,-23.47696 -0.34901,-3.46918 -1.59595,-7.43347 -3.19691,-10.16358 -1.6354,-2.78887 -5.77515,-6.77965 -8.30174,-8.00304 -2.36753,-1.14637 -6.17543,-2.12375 -10.20675,-2.61975 -1.64512,-0.2024 -11.49343,-0.33363 -25.04,-0.33363 l -22.3284,-1.3e-4 v 44.32 44.32 h 5.92 5.92 z m 0,-44.64921 v -14.4472 l 15.76,0.14364 c 13.08189,0.11927 16.14065,0.23245 18,0.66615 6.35976,1.48345 10.50789,5.66966 11.31264,11.41654 0.8412,6.0072 -2.19617,11.97146 -7.36865,14.46935 -3.92337,1.89465 -4.43409,1.94332 -21.78399,2.07651 l -15.92,0.12221 z m 184,43.52921 v -20.8 h 22.24 22.24 v 20.8 20.8 h 5.92 5.92 v -44.32 -44.32 h -5.92 -5.92 v 18.08 18.08 h -22.24 -22.24 v -18.08 -18.08 h -5.92 -5.92 v 44.32 44.32 h 5.92 5.92 z m 93.76,-23.52 v -44.32 h -5.92 -5.92 v 44.32 44.32 h 5.92 5.92 z m 78.04708,0.39655 c 9.22188,-24.15412 16.83331,-44.09655 16.91424,-44.31655 0.11446,-0.31113 -1.20429,-0.4 -5.93578,-0.4 h -6.08291 l -0.31501,0.88 c -0.17325,0.484 -5.7975,15.94925 -12.4983,34.3672 -6.7008,18.41795 -12.80391,35.48675 -13.56244,37.93066 l -1.37916,4.44349 -1.0833,-3.69066 c -0.59581,-2.02989 -6.40518,-18.88269 -12.90973,-37.45069 -6.50454,-18.568 -12.03984,-34.372 -12.30064,-35.12 l -0.47421,-1.36 h -6.39337 c -5.19869,0 -6.37405,0.0806 -6.28992,0.43111 0.0569,0.23712 7.59145,20.1775 16.74345,44.312 l 16.64,43.88086 6.08,0.004 6.08,0.004 16.76708,-43.91654 z M 369.63747,376.46631 c 7.58515,-1.32275 15.483,-5.53705 20.27952,-10.82118 3.72566,-4.10448 6.83926,-9.62538 8.7832,-15.57398 3.7808,-11.56973 3.71302,-26.37908 -0.17412,-38.0435 -4.92969,-14.79289 -16.04236,-24.39772 -30.45126,-26.31942 -3.43514,-0.45814 -10.25488,-0.21848 -13.43331,0.47208 -12.93962,2.81128 -23.13885,12.47931 -27.38563,25.95928 -3.6648,11.63268 -3.74506,26.5232 -0.20144,37.36714 4.79219,14.66461 15.32316,24.49738 28.86841,26.95443 3.17997,0.57683 10.42077,0.57955 13.71463,0.005 z m -11.41252,-10.24256 c -11.18252,-2.0718 -19.33926,-11.35577 -21.7952,-24.80723 -0.66982,-3.66886 -0.76643,-14.05065 -0.16969,-18.24 1.03952,-7.29799 3.42646,-13.7011 6.59062,-17.67965 2.94301,-3.70047 7.97543,-7.03695 12.98807,-8.61102 2.07804,-0.65256 3.02675,-0.74852 7.3462,-0.7431 4.72276,0.006 5.09306,0.0536 7.74205,0.99569 9.82202,3.4933 15.81591,11.402 18.39997,24.27808 0.82035,4.08768 0.81648,16.02679 -0.006,20.11968 -1.95853,9.74003 -5.93978,16.42285 -12.48118,20.95063 -5.03165,3.48275 -12.20903,4.92364 -18.61431,3.73692 z m 253.12416,10.10909 c 9.85645,-2.03437 17.19901,-7.91817 22.04077,-17.66195 1.85623,-3.73555 4.34506,-10.97104 3.92,-11.3961 -0.20713,-0.20713 -10.09433,-2.96876 -10.64931,-2.97449 -0.20042,-0.003 -0.46506,0.53277 -0.58806,1.18857 -1.20548,6.42564 -4.84813,12.90996 -9.23997,16.44813 -4.08346,3.2897 -8.03319,4.58147 -13.96759,4.56819 -3.63836,-0.008 -4.26627,-0.10016 -6.94534,-1.01779 -11.6111,-3.97709 -17.07069,-12.99523 -18.35696,-30.32208 -0.67328,-9.06915 1.00445,-19.65788 4.10512,-25.9088 2.91149,-5.86951 8.6025,-10.75278 14.48918,-12.43267 2.96304,-0.84556 7.42029,-1.21834 10.28004,-0.85976 3.42492,0.42945 4.79302,0.82654 7.45776,2.16458 4.41494,2.21685 8.16944,7.08878 10.42512,13.52785 0.40076,1.144 0.8198,2.18725 0.9312,2.31833 0.17171,0.20206 9.99126,-2.12181 10.63459,-2.51674 0.3111,-0.19101 -0.54615,-2.96794 -1.98736,-6.43762 -3.49293,-8.4092 -10.21914,-15.03419 -17.97104,-17.70057 -9.27027,-3.18866 -19.74397,-2.4302 -28.90231,2.09299 -8.75347,4.32322 -14.57798,11.37196 -18.09907,21.90327 -1.71235,5.12152 -2.55213,10.22297 -2.76976,16.82604 -0.5967,18.10493 5.08832,33.94813 15.03834,41.90912 4.16275,3.33059 9.80969,5.72048 15.43049,6.53046 3.68308,0.53075 11.5946,0.39696 14.72416,-0.24896 z m 158.60269,-0.29353 c 3.34176,-0.9009 6.56544,-2.31511 9.27959,-4.07088 7.60307,-4.9184 11.99993,-13.94106 11.367,-23.32596 -0.61107,-9.06121 -5.0791,-15.5895 -13.59049,-19.85724 -3.00858,-1.50858 -8.14704,-3.18762 -16.54605,-5.40663 -14.14358,-3.73673 -17.33056,-5.37968 -19.43014,-10.01664 -0.53767,-1.18746 -0.697,-2.13842 -0.68775,-4.10544 0.016,-3.43555 0.89018,-5.65178 3.22275,-8.17125 3.22919,-3.4879 7.44784,-4.87175 14.81824,-4.86084 6.92772,0.0102 11.53258,1.60546 14.72839,5.10219 2.37657,2.60035 4.44995,7.58083 4.46688,10.7299 0.005,1.03569 -0.12323,1.02635 6.24473,0.45263 l 4.16,-0.37479 -0.0262,-2.39892 c -0.0632,-5.7531 -2.76864,-11.8975 -7.18185,-16.31072 -3.56525,-3.56525 -6.80781,-5.29408 -13.06983,-6.96841 -2.81875,-0.75367 -3.62864,-0.82462 -9.48198,-0.8306 -5.90781,-0.006 -6.63885,0.0578 -9.50586,0.83012 -8.19488,2.20754 -13.48403,6.21778 -16.56649,12.56069 -1.63703,3.36863 -2.23818,5.71255 -2.46547,9.61309 -0.46554,7.98838 2.9416,15.11197 9.28979,19.42294 4.04985,2.75021 7.80019,4.11584 23.03405,8.38762 7.48809,2.09974 10.44665,3.27165 12.99424,5.14707 5.0622,3.72659 6.4488,10.06647 3.4855,15.93677 -3.83213,7.59136 -16.31142,10.89453 -27.28941,7.22323 -8.12467,-2.71705 -12.47529,-7.88169 -13.92525,-16.53072 -0.30128,-1.79725 -0.5086,-2.31849 -0.92003,-2.31334 -0.29209,0.004 -2.54707,0.21539 -5.01107,0.47053 -2.464,0.25513 -4.55693,0.46812 -4.65091,0.47334 -0.40717,0.0227 0.37542,6.17152 1.10659,8.69459 1.04611,3.60986 2.08595,5.91984 3.87907,8.61706 4.53402,6.82013 11.09571,10.71081 20.78525,12.32432 4.00294,0.66659 14.34138,0.40425 17.48685,-0.44371 z M 79.984954,374.87729 c 3.57007,-0.69245 7.565913,-2.08528 9.822771,-3.42387 5.167766,-3.06519 9.205481,-9.57219 10.346115,-16.67338 0.64044,-3.9872 0.27327,-9.72995 -0.833459,-13.03584 -1.790896,-5.3495 -5.429283,-9.52131 -10.45729,-11.9904 l -2.801865,-1.37593 2.221804,-1.62106 c 8.608218,-6.28078 10.874432,-18.71414 5.2505,-28.80633 -1.437466,-2.57954 -4.649117,-5.9825 -6.960052,-7.37465 -2.470147,-1.48807 -5.448544,-2.5155 -8.928064,-3.07983 -2.347884,-0.3808 -6.471171,-0.47716 -20.46046,-0.47819 l -17.52,-10e-4 v 44.35165 44.35165 l 18.8,-0.15747 c 15.682326,-0.1314 19.251068,-0.245 21.52,-0.68506 z m -29.12,-25.17936 v -15.07856 l 12.08,0.1737 c 13.066483,0.18787 15.059904,0.40256 18.6352,2.00707 2.366793,1.06214 5.16638,3.9072 6.245212,6.34662 2.276749,5.14813 1.636004,11.78087 -1.558467,16.13261 -1.998393,2.72237 -5.447238,4.55373 -9.746857,5.17565 -1.174298,0.16985 -7.427088,0.31168 -13.895088,0.31517 l -11.76,0.006 z m 0,-38.80396 v -13.31745 l 8.4,0.01 c 8.809123,0.0103 14.958905,0.33883 17.726512,0.94704 3.573884,0.78539 6.375334,3.27231 7.832182,6.95282 0.613491,1.54991 0.732413,2.44786 0.732413,5.53034 0,3.10878 -0.116634,3.97509 -0.751399,5.58109 -1.3656,3.45503 -4.660697,5.97581 -9.019558,6.90007 -0.999661,0.21196 -6.578848,0.43782 -13.32015,0.53923 l -11.6,0.17449 v -13.31743 z m 78.719996,20.44255 v -44.32 h -5.44 -5.44 v 44.32 44.32 h 5.44 5.44 z m 61.44,43.54842 c 9.12194,-1.75821 14.21258,-5.25472 17.57225,-12.06951 2.33238,-4.73104 2.97305,-7.44675 3.01001,-12.75891 0.0352,-5.06153 -0.40449,-7.13129 -2.36451,-11.13033 -2.11927,-4.32397 -6.0551,-8.0313 -10.40514,-9.80109 l -1.7484,-0.71133 1.77234,-1.22064 c 3.93239,-2.70835 7.13181,-7.42615 8.35756,-12.3239 0.80721,-3.22538 0.49997,-9.30992 -0.6389,-12.65271 -2.55147,-7.48901 -7.57373,-12.15657 -15.39521,-14.30787 -2.47944,-0.68197 -3.1566,-0.70766 -21.52,-0.8166 l -18.96,-0.11248 v 44.36844 44.36848 l 18.8,-0.15363 c 15.63408,-0.12778 19.25805,-0.24195 21.52,-0.67792 z m -29.12,-25.12359 v -15.06483 l 9.52,0.003 c 16.91725,0.005 21.12969,0.78944 24.88,4.63399 3.42309,3.50908 4.79108,8.8863 3.63992,14.30752 -0.81838,3.85398 -3.50736,7.59584 -6.51654,9.06809 -3.66439,1.79283 -4.09565,1.83952 -18.32338,1.98362 l -13.2,0.13369 V 349.7618 Z m 0,-38.8656 v -13.31923 l 8.4,6.4e-4 c 10.18257,9.6e-4 16.06038,0.40689 18.98909,1.31147 2.83121,0.87448 5.41354,3.33007 6.53063,6.21011 1.10331,2.84451 1.26553,7.6779 0.35799,10.66581 -1.1627,3.82794 -4.16374,6.44569 -8.70543,7.59356 -1.6329,0.41271 -4.4554,0.55325 -13.81228,0.68772 l -11.76,0.16902 v -13.31924 z m 116.16,59.32077 v -5.44 h -19.68 -19.68 v -38.88 -38.88 h -5.6 -5.6 v 44.32 44.32 h 25.28 25.28 z m 27.84,-38.88 v -44.32 h -5.44 -5.44 v 44.32 44.32 h 5.44 5.44 z m 144.96,5.28 v -39.04 h 13.28 13.28 v -5.28 -5.28 h -32 -32 v 5.28 5.28 h 13.28 13.28 v 39.04 39.04 h 5.44 5.44 z m 102.08,33.6 v -5.44 h -24.64 -24.64 v -14.88 -14.88 h 22.24 22.24 v -5.44 -5.44 h -22.24 -22.24 v -13.28 -13.28 h 23.68 23.68 v -5.28 -5.28 h -29.12 -29.12 v 44.32 44.32 h 30.08 30.08 z m 107.70372,-8.00281 4.42041,-13.44282 16.62765,0.0828 16.62765,0.0828 4.64064,13.36 4.64067,13.36 h 6.18963 c 3.95229,0 6.18963,-0.11677 6.18963,-0.32307 0,-0.23354 -30.84992,-83.56153 -32.4896,-87.75693 -0.19763,-0.50568 -0.7975,-0.55961 -6.18464,-0.55605 l -5.96576,0.004 -15.36,44.03319 c -8.448,24.21827 -15.408,44.16048 -15.46665,44.31606 -0.0594,0.15744 2.51283,0.28285 5.80163,0.28285 h 5.90829 l 4.42045,-13.44282 z m 8.17958,-25.19719 c 6.67718,-18.93608 10.90528,-32.34844 11.81498,-37.47944 l 0.41833,-2.35944 0.43607,1.55944 c 1.10784,3.96165 3.10502,10.06824 7.96076,24.34079 2.8856,8.48172 5.24656,15.50172 5.24656,15.6 0,0.0982 -5.96825,0.17865 -13.26275,0.17865 h -13.26278 z m 54.6767,410.58864 c 17.01146,-2.6408 32.16612,-8.8127 44.63501,-18.17808 11.39251,-8.55686 19.78464,-18.59245 27.16986,-32.49056 l 1.78544,-3.36 0.005,27.12 0.005,27.12 -37.2,-0.0436 c -20.46,-0.024 -36.84,-0.0995 -36.4,-0.16778 z m -692.463879,-36.82864 0.01612,-35.76 1.373739,3.84 c 6.293757,17.5929 14.06327,30.37834 25.295494,41.62605 13.174189,13.19235 26.848196,20.55776 46.578526,25.08922 l 4,0.91865 -38.639994,0.023 -38.640001,0.023 z m 667.503879,11.2401 c -12.75987,-0.79607 -23.03808,-3.52445 -33.52438,-8.8992 -23.776,-12.1864 -36.36237,-34.67623 -40.12717,-71.7009 -0.65305,-6.4223 -0.55686,-24.39981 0.16176,-30.2368 2.00029,-16.24726 6.29747,-31.13846 11.91776,-41.2992 6.816,-12.3224 17.64202,-22.45459 30.54599,-28.58832 7.01465,-3.3343 16.11817,-5.84755 25.26604,-6.97536 4.41828,-0.5447 18.75684,-0.55158 22.56,-0.0109 5.09988,0.72512 9.50855,1.7064 13.41837,2.98663 18.13082,5.9367 30.26647,18.54707 38.60672,40.11692 1.01933,2.6362 1.99293,4.83962 2.16359,4.89652 0.17062,0.0569 6.34572,-1.272 13.7224,-2.95309 7.37667,-1.68106 13.5104,-3.05648 13.63052,-3.05648 0.12013,0 0.2184,20.74569 0.2184,46.10157 0,43.75552 -0.0285,46.09318 -0.56,45.93724 -1.1144,-0.32694 -23.14988,-5.63881 -23.39187,-5.63881 -0.13657,0 -0.79481,2.052 -1.46269,4.56 -6.11894,22.97705 -18.11235,38.61814 -36.50544,47.60809 -7.06998,3.45559 -14.08915,5.49927 -22.4,6.52199 -4.03516,0.49654 -11.25756,0.81609 -14.24,0.63001 z m -88.96,-576.11519 V 54.974862 l 38.32,0.13193 c 40.79812,0.14046 41.91146,0.178636 53.13936,1.822086 15.66112,2.292346 27.21172,7.999734 37.97738,18.765421 13.43658,13.43655 20.1311,28.750731 22.57526,51.642221 0.99146,9.28589 0.90583,25.43416 -0.18665,35.19499 -3.34359,29.87404 -15.74583,52.43071 -34.8057,63.30318 -7.96905,4.54585 -19.94259,8.10597 -31.89965,9.4848 -10.01299,1.15465 -12.20067,1.216 -48.56,1.36185 l -36.56,0.14666 z M 77.424954,92.456523 v -39.36 l 45.679996,0.0032 c 27.82841,0.0019 47.4933,0.130947 50.32,0.330147 15.38114,1.083914 26.92518,4.515389 34.74999,10.329462 10.28942,7.645364 15.60222,19.248484 14.27571,31.178087 -0.51622,4.642438 -1.36517,7.571091 -3.4087,11.759141 -6.10649,12.5147 -17.06519,19.66922 -35.02715,22.86789 -10.92369,1.94529 -19.75733,2.23793 -67.78985,2.24578 l -38.799996,0.006 z M 796.03059,107.77173 C 793.16771,95.388168 787.5535,82.134068 780.90809,72.070404 774.11318,61.780289 763.83996,51.48452 753.42495,44.526942 c -14.31936,-9.565818 -32.55811,-15.285857 -54.08,-16.960591 -1.82307,-0.141862 18.47063,-0.352813 47.1625,-0.490249 27.69939,-0.132682 50.4159,-0.187835 50.48118,-0.122562 0.0653,0.06527 0.0822,19.165991 0.0375,42.446039 l -0.0812,42.327361 z"
         id="path1228" />
    </g>
  </g>
</svg>
